<svg width="40" height="48" viewBox="0 0 40 48" fill="none" xmlns="http://www.w3.org/2000/svg">
<path d="M12.65 38.0001V37.3501H12H10C9.25899 37.3501 8.65 36.7411 8.65 36.0001V16.6501H31.35V36.0001C31.35 36.7411 30.741 37.3501 30 37.3501H28H27.35V38.0001V45.0001C27.35 46.3011 26.301 47.3501 25 47.3501C23.699 47.3501 22.65 46.3011 22.65 45.0001V38.0001V37.3501H22H18H17.35V38.0001V45.0001C17.35 46.3011 16.301 47.3501 15 47.3501C13.699 47.3501 12.65 46.3011 12.65 45.0001V38.0001ZM26.6004 3.86044L26.0631 4.39768L26.6771 4.84528C29.3435 6.78941 31.133 9.85614 31.3316 13.3501H8.66841C8.86643 9.86417 10.6467 6.79653 13.2958 4.84321L13.9039 4.39476L13.3696 3.86044L10.7496 1.24044C10.6135 1.10428 10.6135 0.885837 10.7496 0.749678C10.8858 0.613519 11.1042 0.613519 11.2404 0.749678L14.2104 3.71968L14.5408 4.05009L14.9592 3.84216C16.4843 3.08436 18.1858 2.65006 20 2.65006C21.8038 2.65006 23.4958 3.08413 25.0122 3.83289L25.4293 4.03884L25.7588 3.71045L28.7188 0.760456L28.7196 0.759678C28.8558 0.623519 29.0742 0.623519 29.2104 0.759678C29.3465 0.895837 29.3465 1.11428 29.2104 1.25044L26.6004 3.86044ZM16 10.6501H16.65V10.0001V8.00006V7.35006H16H14H13.35V8.00006V10.0001V10.6501H14H16ZM26 10.6501H26.65V10.0001V8.00006V7.35006H26H24H23.35V8.00006V10.0001V10.6501H24H26ZM0.65 19.0001C0.65 17.699 1.69899 16.6501 3 16.6501C4.30101 16.6501 5.35 17.699 5.35 19.0001V33.0001C5.35 34.3011 4.30101 35.3501 3 35.3501C1.69899 35.3501 0.65 34.3011 0.65 33.0001V19.0001ZM34.65 19.0001C34.65 17.699 35.699 16.6501 37 16.6501C38.301 16.6501 39.35 17.699 39.35 19.0001V33.0001C39.35 34.3011 38.301 35.3501 37 35.3501C35.699 35.3501 34.65 34.3011 34.65 33.0001V19.0001Z" stroke="white" stroke-width="1.3"/>
</svg>
