<svg width="40" height="40" viewBox="0 0 40 40" fill="none" xmlns="http://www.w3.org/2000/svg">
<path d="M19.3362 0.140484C19.2112 0.226421 19.0471 0.351421 18.9846 0.429546C18.9221 0.499859 18.4143 1.46861 17.8518 2.56236L16.8362 4.57017L14.5783 4.8983C12.4377 5.2108 12.3049 5.24205 12.0393 5.45298C11.5471 5.84361 11.3674 6.50767 11.594 7.03892C11.6643 7.2108 12.3205 7.91392 13.3283 8.90611L14.9533 10.492L14.5705 12.7733L14.1799 15.0624L14.3362 15.4374C14.4455 15.6874 14.6018 15.8905 14.8049 16.0311C15.0862 16.2342 15.1721 16.2499 15.6252 16.2264C16.1018 16.203 16.2424 16.1405 18.0627 15.1717L20.0002 14.1483L21.9299 15.1717C23.7346 16.1249 23.8987 16.1952 24.3752 16.2264C24.844 16.2577 24.9065 16.242 25.2033 16.0311C25.4299 15.867 25.5705 15.6795 25.6721 15.4217L25.8127 15.0467L25.4299 12.7655L25.0471 10.4842L26.7033 8.85923C28.1096 7.46861 28.3674 7.17955 28.4455 6.89048C28.594 6.38267 28.4455 5.8983 28.0471 5.53111C27.6877 5.2108 27.7737 5.22642 24.9221 4.82017L23.1643 4.57017L22.1487 2.56236C21.1096 0.507671 20.9768 0.296734 20.6096 0.109234C20.3049 -0.0470161 19.6174 -0.0313911 19.3362 0.140484ZM20.8596 3.73423C21.7112 5.48423 22.0237 5.95298 22.4455 6.0858C22.5862 6.13267 23.469 6.2733 24.4143 6.40611C25.3596 6.53892 26.219 6.67173 26.3205 6.69517C26.4924 6.74205 26.3752 6.87486 25.0158 8.19517C23.7112 9.46861 23.5158 9.69517 23.4377 9.99205C23.3596 10.2967 23.3908 10.578 23.6877 12.3592C23.883 13.4686 24.0315 14.3749 24.0158 14.3749C24.008 14.3749 23.1955 13.953 22.2112 13.4374C20.5705 12.578 20.383 12.4999 20.0002 12.4999C19.6096 12.4999 19.4299 12.578 17.7971 13.4374C16.8127 13.953 16.0002 14.3749 15.9846 14.3749C15.9768 14.3749 16.1174 13.4686 16.3127 12.3592C16.6174 10.5702 16.6408 10.2967 16.5627 9.99205C16.4846 9.69517 16.2815 9.4608 14.9768 8.19517C13.508 6.76548 13.4846 6.73423 13.7112 6.68736C13.844 6.66392 14.7033 6.53892 15.6252 6.40611C16.5471 6.2733 17.4143 6.12486 17.5549 6.0858C17.9768 5.95298 18.2971 5.48423 19.1408 3.72642C19.594 2.79673 19.9768 2.03111 20.0002 2.03111C20.0237 2.03892 20.4065 2.79673 20.8596 3.73423Z" fill="white"/>
<path d="M6.38273 2.85938C6.12492 3.11719 6.0546 3.42969 6.19523 3.75781C6.25773 3.90625 6.74992 4.45312 7.28898 4.97656C8.2421 5.91406 8.27335 5.9375 8.6171 5.9375C9.03117 5.9375 9.34367 5.67969 9.42179 5.27344C9.4921 4.89062 9.33585 4.67188 8.25773 3.60938C7.3046 2.67188 7.28117 2.65625 6.93742 2.65625C6.66398 2.65625 6.53898 2.70312 6.38273 2.85938Z" fill="white"/>
<path d="M31.7426 3.60938C30.6488 4.6875 30.5082 4.89062 30.5863 5.28906C30.6644 5.69531 30.9613 5.9375 31.391 5.9375C31.7426 5.9375 31.7582 5.92969 32.7738 4.89844C33.4613 4.21094 33.8207 3.79688 33.8441 3.64844C33.9535 3.07812 33.6176 2.65625 33.0629 2.65625C32.7191 2.65625 32.6957 2.67188 31.7426 3.60938Z" fill="white"/>
<path d="M4.4301 7.53906C4.21916 7.75781 4.14104 8.01562 4.20354 8.32031C4.21916 8.42188 4.32854 8.60156 4.4301 8.71094L4.63322 8.90625H6.18791H7.75041L7.97697 8.67969C8.15666 8.5 8.20354 8.38281 8.20354 8.125C8.20354 7.86719 8.15666 7.75 7.97697 7.57031L7.75041 7.34375H6.18791H4.63322L4.4301 7.53906Z" fill="white"/>
<path d="M32.0234 7.57031C31.8438 7.75 31.7969 7.86719 31.7969 8.125C31.7969 8.38281 31.8438 8.5 32.0234 8.67969L32.25 8.90625H33.8125H35.3672L35.5781 8.70312C35.8672 8.40625 35.8672 7.84375 35.5781 7.54688L35.3672 7.34375H33.8125H32.25L32.0234 7.57031Z" fill="white"/>
<path d="M7.28918 11.2656C6.75012 11.7969 6.25793 12.3438 6.19543 12.4922C5.96105 13.0469 6.32824 13.5938 6.93762 13.5938C7.28137 13.5938 7.3048 13.5781 8.25793 12.6328C9.33605 11.5781 9.4923 11.3594 9.42199 10.9766C9.34387 10.5703 9.03137 10.3125 8.6173 10.3125C8.27355 10.3125 8.2423 10.3359 7.28918 11.2656Z" fill="white"/>
<path d="M30.836 10.5C30.5781 10.7422 30.4922 11.1562 30.6485 11.4531C30.7188 11.5781 31.2031 12.1094 31.7422 12.6328C32.6953 13.5781 32.7188 13.5938 33.0625 13.5938C33.4766 13.5938 33.7813 13.3516 33.8594 12.9609C33.9375 12.5625 33.7344 12.2734 32.711 11.2656C31.7578 10.3359 31.7266 10.3125 31.3828 10.3125C31.125 10.3125 30.9844 10.3594 30.836 10.5Z" fill="white"/>
<path d="M11.6094 18.0156L11.4062 18.2266V21.4531V24.6875H8.48438H5.57031L5.35938 24.8906L5.15625 25.1016V28.3281V31.5625H2.78125H0.414062L0.203125 31.7656L0 31.9766V35.7812V39.5859L0.203125 39.7969L0.414062 40H20H39.5859L39.7969 39.7969L40 39.5859V35.7812V31.9766L39.7969 31.7656L39.5859 31.5625H37.2188H34.8438V28.3281V25.1016L34.6406 24.8906L34.4297 24.6875H31.5156H28.5938V21.4531V18.2266L28.3906 18.0156L28.1797 17.8125H20H11.8203L11.6094 18.0156ZM27.0312 22.0312V24.6875H20H12.9688V22.0312V19.375H20H27.0312V22.0312ZM33.2812 28.9062V31.5625H31.8672H30.4531L30.2266 31.7891C30.0469 31.9688 30 32.0859 30 32.3438C30 32.6016 30.0469 32.7188 30.2266 32.8984L30.4531 33.125H34.4453H38.4375V35.7812V38.4375H20H1.5625V35.7812V33.125H13.1953H24.8203L25.0312 32.9219C25.3203 32.625 25.3203 32.0625 25.0312 31.7656L24.8203 31.5625H15.7734H6.71875V30.625V29.6875H10.2266H13.7266L13.9375 29.4844C14.2266 29.1875 14.2266 28.625 13.9375 28.3281L13.7266 28.125H10.2266H6.71875V27.1875V26.25H20H33.2812V28.9062Z" fill="white"/>
<path d="M16.2969 28.3281C16.1328 28.4922 16.0938 28.6094 16.0938 28.9062C16.0938 29.2031 16.1328 29.3203 16.2969 29.4844C16.4609 29.6484 16.5781 29.6875 16.875 29.6875C17.1719 29.6875 17.2891 29.6484 17.4531 29.4844C17.7422 29.1875 17.7422 28.625 17.4531 28.3281C17.2891 28.1641 17.1719 28.125 16.875 28.125C16.5781 28.125 16.4609 28.1641 16.2969 28.3281Z" fill="white"/>
<path d="M27.148 31.75C26.9293 31.9766 26.8355 32.2656 26.9058 32.5469C27.1011 33.3281 28.2886 33.3281 28.4839 32.5469C28.5543 32.2656 28.4605 31.9766 28.2418 31.75C28.1011 31.6094 27.9683 31.5625 27.6949 31.5625C27.4214 31.5625 27.2886 31.6094 27.148 31.75Z" fill="white"/>
</svg>
