<svg width="70" height="70" viewBox="0 0 70 70" fill="none" xmlns="http://www.w3.org/2000/svg">
<path d="M4.52755 0.256363C3.00958 0.830528 1.73777 2.03628 0.93092 3.64394C-0.0673845 5.62482 0.000992553 3.98845 0.000992553 28.0317C0.000992553 52.0749 -0.0673845 50.4385 0.93092 52.4194C1.75144 54.0558 3.03693 55.2471 4.62328 55.8213C5.30705 56.0653 5.82671 56.094 10.2712 56.094H15.167L15.5226 55.7639C15.7961 55.5342 15.9055 55.2615 15.9602 54.7878C16.0286 54.1993 15.9875 54.0701 15.6183 53.6395L15.208 53.1514L10.3669 53.0797C5.63526 53.0079 5.52585 53.0079 5.03354 52.6778C4.33609 52.2328 3.7207 51.4433 3.29676 50.4959L2.9412 49.7064L2.90018 35.8834L2.87283 22.0747H32.5484H62.2241V29.3235V36.5724H61.6087C60.8702 36.5724 60.2685 36.8164 59.6668 37.3475L59.2291 37.7351L58.0257 37.2327L56.8223 36.7303L56.7402 36.0269C56.6171 35.0652 56.2753 34.3618 55.6325 33.7877C54.853 33.0843 54.2103 32.9408 52.0222 33.0126C50.2307 33.0556 50.0803 33.0843 49.4649 33.4575C48.617 33.9886 48.0016 35.0652 48.0016 36.0413C48.0016 36.6442 47.9606 36.7446 47.6324 36.8882C47.4136 36.9743 46.8666 37.2183 46.4016 37.448C45.5811 37.8356 45.5537 37.8356 45.3213 37.5628C44.5828 36.7016 42.8187 36.3284 41.7383 36.7877C41.1366 37.0604 38.7844 39.4432 38.4289 40.1609C37.8545 41.3523 37.9912 42.7303 38.7981 43.8499L39.2631 44.4959L38.7844 45.6586L38.3058 46.8356L37.6357 46.9217C36.7331 47.0509 36.063 47.3954 35.5023 48.0557C34.8733 48.7878 34.7365 49.3763 34.7365 51.3859V53.0797H30.6339C26.0937 53.0797 25.9159 53.1084 25.4919 53.9553C25.2321 54.4864 25.3278 55.1897 25.6971 55.6921L25.9569 56.0223L32.1382 56.094L38.3058 56.1658L38.7844 57.4146L39.2767 58.6778L38.8938 59.1371C38.3468 59.8261 38.1554 60.429 38.1554 61.4051C38.1554 62.6108 38.4289 63.0845 40.0973 64.7927C41.3964 66.1276 41.5742 66.2711 42.2716 66.429C43.2836 66.6587 44.2136 66.4434 45.0614 65.7687C45.6632 65.2807 45.6768 65.2664 46.1144 65.5104C46.3606 65.6396 46.8666 65.8549 47.2358 65.9984L47.9333 66.2424L48.0153 67.0463C48.1247 68.0654 48.6581 69.0415 49.3965 69.5582C49.9436 69.9315 50.0393 69.9458 52.1453 69.9889C54.6752 70.0463 55.2223 69.9027 55.947 69.0558C56.5077 68.3812 56.7539 67.7353 56.7539 66.9745V66.3573L57.9984 65.7975L59.2428 65.252L59.5984 65.6108C60.2685 66.2568 60.8565 66.4865 61.8275 66.4865C62.5386 66.4865 62.8395 66.4147 63.3318 66.1132C64.0429 65.6683 66.0532 63.5439 66.3677 62.8979C66.9284 61.7496 66.7643 60.2424 65.9848 59.2807L65.5198 58.7209L66.0258 57.4003L66.5181 56.094H67.1472C68.3506 56.0797 69.5541 55.161 69.8823 53.984C69.978 53.6395 70.019 52.5773 69.9917 51.1993C69.9507 48.9887 69.9507 48.96 69.5541 48.3572C69.0344 47.582 68.1729 47.0509 67.2429 46.9504L66.5181 46.8787L66.0258 45.6586L65.5335 44.4385L65.9985 43.8069C66.5592 43.0318 66.7916 42.1849 66.6959 41.2806C66.6002 40.448 66.3814 39.9887 65.6566 39.1274L65.0959 38.4671V22.6919C65.0959 9.34255 65.0549 6.77315 64.8908 5.92625C64.4121 3.54346 63.0172 1.54824 61.1574 0.58651L60.118 0.0410538L32.6989 0.0123444C5.75833 -0.0163651 5.25235 -0.0163651 4.52755 0.256363ZM59.995 3.41428C60.8155 3.90232 61.2394 4.43343 61.7728 5.63918L62.1557 6.50042L62.1967 12.7732L62.2377 19.0603H32.5484H2.85915L2.90018 12.7014L2.9412 6.35688L3.33779 5.46693C3.76173 4.5052 4.62328 3.52911 5.37542 3.19897C5.74466 3.02672 10.0387 2.99801 32.5484 2.98366H59.2839L59.995 3.41428ZM53.8821 37.2901C53.9778 39.07 53.9778 39.07 56.0018 39.7303C56.5351 39.9026 57.4103 40.3045 57.9573 40.6059C59.4343 41.4384 59.8856 41.3954 60.9796 40.3475L61.8275 39.5437L62.8531 40.6059L63.8651 41.6538L63.195 42.3858C62.0053 43.6633 61.9779 43.9648 62.8258 45.7303C63.154 46.4337 63.5643 47.4815 63.7284 48.0701C64.1796 49.6203 64.4121 49.8356 65.8891 49.9218L67.0788 49.9935L67.1199 51.5294L67.1609 53.0797H66.0942C64.4395 53.0797 64.2207 53.295 63.6463 55.2902C63.5095 55.7639 63.1403 56.6826 62.8121 57.3429C61.9779 59.0366 62.0053 59.3237 63.0583 60.4864L63.9061 61.3907L62.9762 62.4099C62.4565 62.9553 61.9506 63.4147 61.8411 63.4147C61.7317 63.4147 61.2805 63.0558 60.8428 62.6252C59.8582 61.6491 59.448 61.5917 58.1898 62.3237C57.7385 62.5965 56.7129 63.0558 55.9334 63.3285C54.0462 64.0032 53.9641 64.1037 53.8957 65.7257L53.8547 67.0176L52.3914 66.9745L50.9419 66.9314L50.8735 65.6826C50.7914 64.1324 50.5863 63.8884 49.123 63.429C48.576 63.2568 47.5914 62.8261 46.9486 62.4816C45.2666 61.563 44.9384 61.5917 43.8443 62.697L42.9964 63.5439L42.0118 62.5104C41.4648 61.9362 41.0272 61.4051 41.0272 61.3333C41.0272 61.2615 41.3691 60.8309 41.793 60.3859C42.7913 59.3381 42.8187 58.9218 42.0118 57.3859C41.711 56.7974 41.3007 55.7495 41.0956 55.0605C40.5896 53.3668 40.3844 53.1801 38.8665 53.0797L37.6767 53.0079V51.5007V49.9935L38.8528 49.9505C40.3571 49.893 40.6033 49.6921 41.0272 48.1849C41.1913 47.5964 41.6016 46.5485 41.9298 45.8595C42.764 44.094 42.7503 43.7351 41.7793 42.6298C41.3691 42.1562 41.0272 41.7112 41.0272 41.6394C41.0272 41.5676 41.4511 41.0652 41.9708 40.5341L42.9281 39.5437L43.7486 40.3475C44.9247 41.4815 45.1572 41.5102 46.8529 40.6203C47.5914 40.2183 48.6444 39.759 49.1777 39.6011C50.5453 39.1848 50.7914 38.8691 50.8461 37.4623C50.8735 36.8595 50.9145 36.271 50.9419 36.1705C50.9966 36.0413 51.3658 35.9982 52.4051 36.0269L53.8137 36.07L53.8821 37.2901Z" fill="url(#paint0_linear_950_498)"/>
<path d="M11.0646 6.47165C9.58762 7.13195 8.6577 8.25157 8.26111 9.85924C7.72777 12.0985 8.75342 14.4526 10.7364 15.4861C11.3244 15.7875 11.6116 15.8306 12.7877 15.8306C13.9364 15.8306 14.2646 15.7731 14.7843 15.5004C15.7963 14.9837 16.4937 14.2516 16.986 13.2038C17.3963 12.3425 17.4373 12.1272 17.4373 11.0219C17.4236 10.0745 17.3552 9.64392 17.1228 9.09847C16.6578 8.0219 15.974 7.24678 15.0168 6.71568C14.2646 6.28505 14.0048 6.22763 12.9928 6.18457C12.0082 6.14151 11.7073 6.18457 11.0646 6.47165ZM13.6902 9.48603C13.9501 9.65828 14.2646 10.0602 14.415 10.3616C14.7296 11.0506 14.5655 11.754 13.9501 12.3856C13.5808 12.7588 13.4167 12.8162 12.7877 12.8162C12.1586 12.8162 11.9945 12.7588 11.6389 12.3999C11.1329 11.8832 10.9141 11.1798 11.0782 10.5769C11.2287 10.0315 11.4338 9.75876 11.9671 9.41426C12.5142 9.06976 13.1296 9.08411 13.6902 9.48603Z" fill="url(#paint1_linear_950_498)"/>
<path d="M23.2488 6.38551C22.0181 6.83049 21.1839 7.63432 20.5001 9.01232C20.2266 9.55778 20.1856 9.87357 20.1719 11.0219C20.1719 12.6726 20.4591 13.419 21.5394 14.553C22.524 15.5865 23.4813 15.9454 25.0266 15.8736C26.3942 15.8018 27.2284 15.4286 28.1446 14.4525C31.0301 11.3808 28.8968 6.11278 24.7805 6.14149C24.2745 6.15585 23.5907 6.25632 23.2488 6.38551ZM25.5873 9.37118C26.4762 9.85922 26.8318 11.309 26.2438 12.0841C25.3822 13.2324 23.7685 13.0889 23.1941 11.8257C22.9206 11.2229 22.9206 10.8353 23.1668 10.3329C23.6865 9.28505 24.6848 8.88314 25.5873 9.37118Z" fill="url(#paint2_linear_950_498)"/>
<path d="M39.5649 6.34252C38.2658 6.77315 37.1307 7.90713 36.6384 9.28513C36.2555 10.376 36.3102 12.2134 36.7751 13.1751C37.1991 14.0507 38.0743 14.9837 38.9085 15.4431L39.5923 15.8306L46.8402 15.8737C54.9087 15.9167 54.8267 15.9311 56.0985 14.955C57.4113 13.9359 58.1771 11.9406 57.8763 10.2756C57.5754 8.58177 56.6592 7.2899 55.2506 6.58655L54.4985 6.21334L47.3189 6.18463C41.6983 6.17027 40.0162 6.19898 39.5649 6.34252ZM54.0198 9.37125C55.3327 10.0746 55.3327 11.9694 54.0198 12.6727C53.6916 12.8593 52.5976 12.888 47.1137 12.888C39.9342 12.888 40.0572 12.9024 39.5239 11.9837C38.9906 11.065 39.3461 9.77317 40.2487 9.37125C40.9188 9.05546 53.4455 9.05546 54.0198 9.37125Z" fill="url(#paint3_linear_950_498)"/>
<path d="M50.6001 42.8165C49.0958 43.1753 47.5368 44.0796 46.4291 45.2567C42.8735 48.9744 43.1333 55.0175 47.0035 58.4051C47.865 59.1658 49.6291 60.0558 50.7095 60.2711C51.8719 60.5008 53.9916 60.3716 55.1267 59.984C57.4788 59.2089 59.5575 57.0414 60.4054 54.5151C60.8703 53.094 60.9934 50.8548 60.6652 49.4911C59.9404 46.4768 57.7797 44.0078 55.0446 43.0892C53.6634 42.6299 51.8582 42.515 50.6001 42.8165ZM53.3489 45.7591C55.113 46.1036 56.5899 47.295 57.3968 49.0318C57.8891 50.0653 57.9164 50.1945 57.9164 51.4864C57.9028 53.4242 57.5746 54.2567 56.2891 55.606C55.0036 56.9553 54.2104 57.2998 52.3779 57.3142C51.2018 57.3142 50.9967 57.2711 50.1625 56.8548C47.824 55.6921 46.4701 53.1227 46.8941 50.6682C47.3317 48.2136 48.9317 46.4193 51.2155 45.8165C52.0907 45.5868 52.4463 45.5868 53.3489 45.7591Z" fill="url(#paint4_linear_950_498)"/>
<path d="M21.2665 30.4431C20.9382 30.7302 20.7605 31.3762 19.4887 37.003C18.6955 40.4336 18.0527 43.4624 18.0527 43.7207C18.0527 45.1418 20.2955 45.5868 20.7878 44.2662C20.8562 44.0796 21.5263 41.1944 22.2921 37.8499C23.7827 31.3187 23.8101 31.0173 23.181 30.4288C22.6887 29.9982 21.7588 29.9982 21.2665 30.4431Z" fill="url(#paint5_linear_950_498)"/>
<path d="M12.6364 31.247C12.2535 31.4192 8.56111 35.6537 8.05512 36.5006C7.68589 37.1322 7.69956 38.2805 8.09615 38.8116C8.88932 39.8738 12.0894 43.5629 12.4176 43.7782C13.0193 44.1945 13.6347 44.1083 14.168 43.5485C14.674 43.0174 14.7697 42.4289 14.4689 41.8404C14.3868 41.6681 13.58 40.6777 12.6911 39.6298C11.8022 38.5963 11.0774 37.6777 11.0774 37.6059C11.0774 37.5341 11.7885 36.6442 12.6637 35.625C14.4552 33.515 14.715 33.0843 14.5783 32.381C14.4279 31.491 13.4159 30.9025 12.6364 31.247Z" fill="url(#paint6_linear_950_498)"/>
<path d="M27.9532 31.2471C27.4609 31.4768 27.078 32.1083 27.078 32.7112C27.078 33.2997 27.0096 33.2136 29.8541 36.5581C30.278 37.0749 30.6336 37.5486 30.6336 37.606C30.6336 37.6634 29.9088 38.5677 29.0199 39.6156C28.1173 40.6634 27.3241 41.6682 27.2421 41.8405C26.5857 43.118 28.0216 44.5678 29.2113 43.85C29.5532 43.6491 33.3003 39.2711 33.6558 38.6538C33.9567 38.1658 33.9977 37.0892 33.7379 36.6299C33.5601 36.2854 30.0592 32.1227 29.4985 31.5772C29.1293 31.2184 28.3908 31.0605 27.9532 31.2471Z" fill="url(#paint7_linear_950_498)"/>
<path d="M20.049 53.2951C19.4747 53.6108 19.2969 53.941 19.2832 54.63C19.2832 55.5199 19.8302 56.0941 20.7054 56.0941C21.5533 56.0941 22.0183 55.6635 22.114 54.7879C22.1824 54.2137 22.1414 54.0702 21.7995 53.6683C21.3208 53.1085 20.6234 52.9649 20.049 53.2951Z" fill="url(#paint8_linear_950_498)"/>
<defs>
<linearGradient id="paint0_linear_950_498" x1="-13.2617" y1="34.5205" x2="83.2843" y2="20.0893" gradientUnits="userSpaceOnUse">
<stop stop-color="#62CFF4"/>
<stop offset="1" stop-color="#2C67F2"/>
</linearGradient>
<linearGradient id="paint1_linear_950_498" x1="6.35611" y1="10.9343" x2="19.225" y2="9.0792" gradientUnits="userSpaceOnUse">
<stop stop-color="#62CFF4"/>
<stop offset="1" stop-color="#2C67F2"/>
</linearGradient>
<linearGradient id="paint2_linear_950_498" x1="18.4099" y1="10.9452" x2="31.2623" y2="9.11095" gradientUnits="userSpaceOnUse">
<stop stop-color="#62CFF4"/>
<stop offset="1" stop-color="#2C67F2"/>
</linearGradient>
<linearGradient id="paint3_linear_950_498" x1="32.3008" y1="10.9684" x2="59.68" y2="1.88028" gradientUnits="userSpaceOnUse">
<stop stop-color="#62CFF4"/>
<stop offset="1" stop-color="#2C67F2"/>
</linearGradient>
<linearGradient id="paint4_linear_950_498" x1="40.716" y1="51.3955" x2="64.1077" y2="48.0585" gradientUnits="userSpaceOnUse">
<stop stop-color="#62CFF4"/>
<stop offset="1" stop-color="#2C67F2"/>
</linearGradient>
<linearGradient id="paint5_linear_950_498" x1="17.0075" y1="37.4787" x2="24.763" y2="37.0508" gradientUnits="userSpaceOnUse">
<stop stop-color="#62CFF4"/>
<stop offset="1" stop-color="#2C67F2"/>
</linearGradient>
<linearGradient id="paint6_linear_950_498" x1="6.4901" y1="37.5048" x2="16.0901" y2="36.7422" gradientUnits="userSpaceOnUse">
<stop stop-color="#62CFF4"/>
<stop offset="1" stop-color="#2C67F2"/>
</linearGradient>
<linearGradient id="paint7_linear_950_498" x1="25.7827" y1="37.5162" x2="35.3566" y2="36.7567" gradientUnits="userSpaceOnUse">
<stop stop-color="#62CFF4"/>
<stop offset="1" stop-color="#2C67F2"/>
</linearGradient>
<linearGradient id="paint8_linear_950_498" x1="18.7416" y1="54.5867" x2="22.6909" y2="54.0193" gradientUnits="userSpaceOnUse">
<stop stop-color="#62CFF4"/>
<stop offset="1" stop-color="#2C67F2"/>
</linearGradient>
</defs>
</svg>
