<svg width="70" height="70" viewBox="0 0 70 70" fill="none" xmlns="http://www.w3.org/2000/svg">
<path d="M4.58815 4.59407V9.18825H3.44112H2.29408V7.46544V5.74262H1.14704H0V8.61398V11.4853H4.77455H9.5491L10.6531 13.4235C11.2553 14.4859 11.7571 15.4335 11.7571 15.5196C11.7571 15.6057 11.5277 16.0652 11.2553 16.5246C9.63512 19.1806 8.35904 23.1287 8.10096 26.2011C8.05795 26.7466 7.98626 27.5506 7.95758 27.9526L7.88589 28.7135H13.6784H19.471L19.557 28.3833C19.6 28.211 19.643 27.8377 19.643 27.5506C19.643 26.6605 20.3026 24.3634 20.9048 23.1718C21.8654 21.2623 23.4139 19.4534 24.9768 18.4053C25.2779 18.2187 25.5216 17.9746 25.5216 17.8741C25.5216 17.7018 20.4316 7.92485 20.2309 7.7095C19.9441 7.42237 15.6427 10.8106 14.252 12.4042C13.8792 12.8492 13.5207 13.2082 13.4777 13.2082C13.4347 13.2082 12.9615 12.4472 12.431 11.5141L11.4704 9.81995V6.63274V3.44553H10.3233H9.17631V6.31689V9.18825H8.02927H6.88223V4.59407V-0.000101089H5.73519H4.58815V4.59407ZM21.0912 14.5864L22.4389 17.1993L21.464 18.1756C19.5713 20.0707 18.2236 22.5114 17.5784 25.153L17.2773 26.4164H13.8935H10.5097L10.6961 25.2248C10.9399 23.746 11.4991 21.8079 12.0869 20.4009L12.5457 19.3098L12.6174 20.243C12.7465 21.9945 13.7788 22.9708 15.485 22.9708C17.2486 22.9708 18.3526 21.8653 18.3526 20.0851C18.3526 19.2954 18.2809 19.037 17.9368 18.4915C17.521 17.831 16.5747 17.2281 15.9725 17.2281C15.7861 17.2281 15.5424 16.9696 15.2413 16.4384L14.7825 15.6488L15.4707 14.8161C16.2163 13.9404 17.9655 12.2175 18.7684 11.5715L19.2559 11.1838L19.4997 11.5858C19.6287 11.8012 20.3456 13.1651 21.0912 14.5864ZM15.8435 20.0994C15.8435 20.3578 15.7574 20.4727 15.5137 20.5014C15.1696 20.5588 14.9689 20.243 15.1122 19.8697C15.1552 19.7405 15.3273 19.6687 15.5137 19.6974C15.7574 19.7261 15.8435 19.841 15.8435 20.0994Z" fill="url(#paint0_linear_950_439)"/>
<path d="M28.3322 4.80953C27.6297 4.92439 26.5687 5.15409 25.9665 5.31202C24.4466 5.714 22.0809 6.61848 22.0809 6.77641C22.0809 6.91998 27.3286 16.6539 27.515 16.8262C27.5723 16.898 28.2605 16.7831 29.0348 16.5821C36.849 14.5865 44.5915 20.5302 44.5915 28.527V29.9914L44.1327 30.0631C43.8746 30.1062 43.2724 30.178 42.7993 30.2211C41.5519 30.3359 39.86 30.8097 38.4405 31.427C34.77 33.0063 31.5296 36.3371 30.0385 40.0698L29.6657 41.0317L28.8484 40.8164C27.5723 40.5005 25.2639 39.2946 24.2029 38.4188C22.2673 36.8108 20.7474 34.4994 20.0449 32.0731L19.7438 31.0107H13.8795H8.00098L8.10134 31.6137C8.86126 36.4519 10.3237 39.9981 12.9906 43.4724C13.4924 44.1185 13.9082 44.6784 13.9082 44.7071C13.9082 44.7502 12.8472 45.6546 11.5425 46.7458L9.17669 48.7126V52.5028V56.2787H10.3237H11.4708V53.1489V50.0335L13.2057 48.5978C14.152 47.8082 15.127 47.0185 15.342 46.8319L15.7435 46.516L16.5177 47.1765C17.6935 48.1958 20.1022 49.7607 21.579 50.4642C23.8875 51.5696 26.7551 52.4023 29.5653 52.7613C30.2392 52.8474 30.2392 52.8474 30.8557 53.9959C32.8774 57.7861 36.5909 60.6575 40.9927 61.8348C42.2114 62.165 42.6559 62.208 44.8783 62.2224C47.0003 62.2224 47.5738 62.1793 48.6492 61.9065C49.9109 61.5907 52.0759 60.758 52.6781 60.3704C52.9936 60.1694 53.1656 60.2986 58.0262 64.864C60.7791 67.4626 63.2596 69.6736 63.532 69.7884C64.3636 70.133 65.7544 70.0468 66.6863 69.6018C67.7043 69.0993 69.1381 67.6062 69.6256 66.5581C70.1131 65.4814 70.1274 64.1175 69.6543 63.2274C69.4249 62.7967 67.7904 61.16 64.4066 57.9871C60.6357 54.4554 59.503 53.3212 59.589 53.1345C60.0478 52.0865 60.6787 49.933 60.8795 48.8131C61.3526 46.0997 60.9655 42.6397 59.9045 40.0842C59.0585 38.0455 57.4383 35.6192 56.1479 34.485L55.6891 34.0831L55.9328 32.5756C56.3056 30.4364 56.2913 26.8329 55.9185 24.6076C55.0869 19.7693 52.6925 15.1464 49.1797 11.629L48.3624 10.8107L49.7532 8.88686L51.1296 6.96305L59.9762 6.91998L68.8227 6.89127V5.74272V4.59418H59.3023H49.7675L48.1617 6.84819C47.2727 8.09724 46.5271 9.14528 46.5128 9.15964C46.4985 9.18835 45.8389 8.81507 45.0647 8.32695C42.5555 6.7477 39.817 5.62787 37.021 5.01052C35.1715 4.60854 30.2535 4.49368 28.3322 4.80953ZM34.0674 7.09226C36.3472 7.23583 38.842 7.9106 41.2651 9.05914C42.8853 9.82005 45.0503 11.184 44.9356 11.3706C44.8926 11.428 44.5055 11.4854 44.061 11.4854C42.4121 11.4854 41.2938 12.6483 41.2938 14.3568C41.2938 16.1227 42.3978 17.2282 44.1614 17.2282C45.3227 17.2282 46.14 16.7831 46.6848 15.8499C47.0433 15.2469 47.0576 15.1177 46.9859 14.0266L46.9143 12.8493L47.8606 13.8543C50.9146 17.0846 52.8072 20.9035 53.5527 25.3828C53.7535 26.5457 53.7822 27.4215 53.7391 29.4027C53.6961 30.7953 53.6244 32.0587 53.5527 32.188C53.4667 32.4033 53.3807 32.389 52.7211 32.0157C51.3304 31.2404 49.6528 30.6805 47.3587 30.2067C47.0433 30.1493 47.029 30.0919 47.029 28.4839C47.029 26.5744 46.7709 25.1531 46.1113 23.3729C45.3371 21.3055 44.4338 19.9416 42.6559 18.1614C40.8923 16.3955 39.5159 15.4766 37.4512 14.7014C35.3578 13.9261 34.1248 13.7395 31.5583 13.8256C30.3252 13.8687 29.1925 13.9405 29.0348 13.9835C28.791 14.0553 28.5473 13.682 27.1709 11.1265C26.3106 9.5042 25.608 8.12595 25.6224 8.06852C25.7084 7.65218 30.8127 6.83384 32.4759 6.99176C32.7197 7.00612 33.4222 7.04919 34.0674 7.09226ZM44.5198 14.3568C44.5198 14.6152 44.4338 14.7301 44.19 14.7588C44.0036 14.7875 43.8316 14.7157 43.7886 14.5865C43.6452 14.2132 43.8459 13.8974 44.19 13.9548C44.4338 13.9835 44.5198 14.0984 44.5198 14.3568ZM47.9466 32.8197C52.334 33.8103 56.2483 37.2128 57.7681 41.3763C58.442 43.1996 58.5567 43.9318 58.5567 46.2289C58.5567 48.8849 58.313 49.9617 57.2089 52.187C55.474 55.7188 52.205 58.4178 48.3911 59.4515C46.8426 59.8822 43.2867 59.9253 41.8673 59.5377C38.9854 58.748 37.0067 57.5851 35.0854 55.5752C28.7337 48.9136 30.655 38.103 38.928 33.9108C40.0177 33.3652 41.9533 32.7622 43.1577 32.5899C44.3764 32.4177 46.6418 32.5325 47.9466 32.8197ZM17.9945 33.6954C18.1666 34.4133 19.1703 36.3801 19.8298 37.3277C21.7941 40.0986 25.0058 42.3669 28.1315 43.1709C29.0491 43.415 29.0921 43.4293 28.9918 43.7882C28.8054 44.4487 28.9058 48.2676 29.1352 49.2725C29.3932 50.4211 29.5223 50.3637 27.558 49.9473C25.0919 49.4018 22.5827 48.3681 20.432 46.9755C19.1846 46.1715 17.5931 44.9224 17.6935 44.8219C17.7365 44.7789 18.2383 44.7645 18.7975 44.7789C19.6578 44.8076 19.9015 44.7502 20.432 44.4343C21.3496 43.9031 21.7941 43.0704 21.7941 41.9219C21.7941 40.156 20.6901 39.0505 18.9265 39.0505C17.7651 39.0505 16.9479 39.4956 16.4174 40.4144C16.1019 40.9456 16.0446 41.1897 16.0733 42.0224C16.0876 42.5679 16.0446 42.9986 15.9586 43.0273C15.6431 43.1422 13.6932 40.3283 12.7038 38.347C12.1016 37.1698 11.2414 34.8153 10.9833 33.6954L10.8972 33.3078H14.3957H17.8942L17.9945 33.6954ZM19.285 41.9219C19.285 42.1803 19.1989 42.2951 18.9552 42.3239C18.6111 42.3813 18.4104 42.0654 18.5537 41.6922C18.5967 41.5629 18.7688 41.4912 18.9552 41.5199C19.1989 41.5486 19.285 41.6634 19.285 41.9219ZM63.2022 60.2842C65.568 62.5095 67.5323 64.4477 67.5753 64.5913C67.8334 65.5819 65.7113 67.8072 64.7507 67.5631C64.5213 67.5057 58.0119 61.5476 55.6461 59.2218L55.1586 58.748L56.1192 57.8579C56.6354 57.3698 57.295 56.6519 57.5817 56.2643L58.0979 55.5608L58.5137 55.9054C58.7288 56.092 60.8508 58.0589 63.2022 60.2842Z" fill="url(#paint1_linear_950_439)"/>
<path d="M42.9858 34.4564C41.767 34.6718 40.663 35.0451 39.3583 35.7198C38.2973 36.2654 37.8098 36.6387 36.6197 37.8159C35.444 39.0075 35.0712 39.4957 34.5264 40.5581C33.6518 42.2522 33.2646 43.6592 33.1643 45.4681C32.8488 51.0529 36.1609 55.8624 41.509 57.5709C42.8567 58.0016 45.9107 58.1308 47.4019 57.815C51.6746 56.9105 55.001 53.8525 56.3488 49.6029C56.7933 48.1959 56.908 45.3102 56.5782 43.7166C55.6175 39.0793 51.8897 35.4183 47.2011 34.5139C46.0684 34.2985 44.0898 34.2698 42.9858 34.4564ZM46.9574 36.9689C49.5812 37.5144 52.1477 39.5244 53.3091 41.922C54.0977 43.5156 54.3415 44.5636 54.3415 46.2003C54.3415 48.483 53.6102 50.5217 52.1621 52.2302C50.2981 54.4268 47.875 55.5609 44.9931 55.5753C42.2259 55.5753 40.0035 54.599 38.0392 52.5029C35.2576 49.5167 34.7845 44.9369 36.8778 41.3764C37.48 40.3427 39.1432 38.6773 40.1612 38.0744C42.1972 36.8827 44.6203 36.4808 46.9574 36.9689Z" fill="url(#paint2_linear_950_439)"/>
<path d="M55.0576 10.3369V11.4855H57.9252H60.7928V10.3369V9.18839H57.9252H55.0576V10.3369Z" fill="url(#paint3_linear_950_439)"/>
<path d="M63.0879 10.3369V11.4855H65.9555H68.8231V10.3369V9.18839H65.9555H63.0879V10.3369Z" fill="url(#paint4_linear_950_439)"/>
<path d="M55.0576 14.931V16.0796H61.9398H68.8221V14.931V13.7825H61.9398H55.0576V14.931Z" fill="url(#paint5_linear_950_439)"/>
<path d="M0 59.7243V60.8728H4.58815H9.17631V59.7243V58.5757H4.58815H0V59.7243Z" fill="url(#paint6_linear_950_439)"/>
<path d="M11.4707 59.7243V60.8728H17.7794H24.0881V59.7243V58.5757H17.7794H11.4707V59.7243Z" fill="url(#paint7_linear_950_439)"/>
<path d="M0 64.3184V65.4669H12.0439H24.0878V64.3184V63.1698H12.0439H0V64.3184Z" fill="url(#paint8_linear_950_439)"/>
<defs>
<linearGradient id="paint0_linear_950_439" x1="-4.83515" y1="14.16" x2="30.5273" y2="9.46184" gradientUnits="userSpaceOnUse">
<stop stop-color="#62CFF4"/>
<stop offset="1" stop-color="#2C67F2"/>
</linearGradient>
<linearGradient id="paint1_linear_950_439" x1="-3.745" y1="36.8491" x2="81.9564" y2="24.7061" gradientUnits="userSpaceOnUse">
<stop stop-color="#62CFF4"/>
<stop offset="1" stop-color="#2C67F2"/>
</linearGradient>
<linearGradient id="paint2_linear_950_439" x1="28.6678" y1="45.9994" x2="61.2533" y2="41.1354" gradientUnits="userSpaceOnUse">
<stop stop-color="#62CFF4"/>
<stop offset="1" stop-color="#2C67F2"/>
</linearGradient>
<linearGradient id="paint3_linear_950_439" x1="53.9711" y1="10.3212" x2="61.0693" y2="7.67214" gradientUnits="userSpaceOnUse">
<stop stop-color="#62CFF4"/>
<stop offset="1" stop-color="#2C67F2"/>
</linearGradient>
<linearGradient id="paint4_linear_950_439" x1="62.0013" y1="10.3212" x2="69.0996" y2="7.67214" gradientUnits="userSpaceOnUse">
<stop stop-color="#62CFF4"/>
<stop offset="1" stop-color="#2C67F2"/>
</linearGradient>
<linearGradient id="paint5_linear_950_439" x1="52.4499" y1="14.9153" x2="63.219" y2="5.26966" gradientUnits="userSpaceOnUse">
<stop stop-color="#62CFF4"/>
<stop offset="1" stop-color="#2C67F2"/>
</linearGradient>
<linearGradient id="paint6_linear_950_439" x1="-1.73848" y1="59.7085" x2="7.79971" y2="54.0131" gradientUnits="userSpaceOnUse">
<stop stop-color="#62CFF4"/>
<stop offset="1" stop-color="#2C67F2"/>
</linearGradient>
<linearGradient id="paint7_linear_950_439" x1="9.08029" y1="59.7085" x2="19.7076" y2="50.9831" gradientUnits="userSpaceOnUse">
<stop stop-color="#62CFF4"/>
<stop offset="1" stop-color="#2C67F2"/>
</linearGradient>
<linearGradient id="paint8_linear_950_439" x1="-4.56351" y1="64.3026" x2="5.26192" y2="48.902" gradientUnits="userSpaceOnUse">
<stop stop-color="#62CFF4"/>
<stop offset="1" stop-color="#2C67F2"/>
</linearGradient>
</defs>
</svg>
