<svg width="70" height="70" viewBox="0 0 70 70" fill="none" xmlns="http://www.w3.org/2000/svg">
<path d="M0.90261 0.259766C0.287194 0.669922 0 1.2168 0 1.96875C0 2.70703 3.0634 14.9844 3.61044 16.4336C4.71819 19.3867 5.14214 19.9199 12.3357 27.1387L18.736 33.5645L9.83298 42.4512C-0.547037 52.8281 0.0683796 52.0625 0.0683796 54.6875C0.0683796 56.1777 0.0957314 56.3008 0.519685 57.2168C0.943638 58.1055 1.36759 58.5703 6.40033 63.6016C11.4331 68.6328 11.898 69.0566 12.787 69.4805C13.7033 69.9043 13.8263 69.9316 15.317 69.9316C17.9154 69.9316 17.0128 70.6426 27.4202 60.2793L36.4463 51.2695L44.5151 59.3496C48.9598 63.793 52.9668 67.7031 53.4318 68.0312C55.2644 69.3574 57.2884 70 59.627 70C61.4049 70 62.6767 69.7129 64.2084 68.9746C66.4102 67.9082 68.024 66.2812 69.077 64.0527C69.8429 62.4121 70.0754 61.1543 69.9797 59.0762C69.8839 56.7383 69.3779 55.2754 68.0377 53.3887C67.7094 52.9375 63.8118 48.9453 59.3671 44.502L51.2847 36.4355L60.2971 27.4121C70.6634 17.0078 69.9523 17.9102 69.9523 15.3125C69.9523 13.8223 69.9249 13.6992 69.501 12.7832C69.077 11.8945 68.6531 11.4297 63.6204 6.39844C58.5876 1.36719 58.1226 0.943359 57.2337 0.519531C56.3174 0.0957031 56.1943 0.0683594 54.7037 0.0683594C52.0779 0.0683594 52.8437 -0.546875 42.4637 9.83008L33.5744 18.7305L27.1467 12.332C19.9121 5.14062 19.3924 4.7168 16.4248 3.5957C14.9614 3.04883 2.72151 0 1.96933 0C1.54538 0 1.16245 0.0957031 0.90261 0.259766ZM60.5433 9.47461L65.7812 14.6973V15.2988C65.7812 15.8594 65.7128 15.9551 64.6871 17.0078L63.6067 18.1152L60.4202 14.9434C58.6697 13.207 57.0422 11.6895 56.7961 11.5664C55.7977 11.0742 54.4575 11.5117 54.0199 12.4688C53.3771 13.8906 53.5686 14.2324 57.3431 18.0195L60.5159 21.1914L59.0116 22.6953L57.5072 24.1992L55.7977 22.5039C54.8541 21.5742 53.9515 20.7402 53.7874 20.6582C53.3634 20.4395 52.2967 20.4668 51.8317 20.7129C51.0112 21.1367 50.6146 22.0527 50.806 23.0645C50.8881 23.4883 51.23 23.9121 52.6933 25.4023L54.4848 27.207L52.9531 28.752L51.4214 30.2832L48.1802 27.043C46.3887 25.2656 44.7886 23.748 44.6245 23.666C44.4604 23.584 44.0775 23.5156 43.7629 23.5156C42.2996 23.5156 41.3423 24.7461 41.7252 26.1543C41.8483 26.6465 42.3543 27.207 45.1442 30.0098L48.4127 33.291L46.9084 34.7949L45.404 36.2852L43.7219 34.6172C41.8483 32.7715 41.3423 32.457 40.3576 32.6074C39.5644 32.7305 38.7712 33.4688 38.6345 34.2344C38.443 35.2461 38.7165 35.7383 40.5901 37.6387L42.3133 39.375L40.85 40.8516L39.3866 42.3145L36.2138 39.1426C34.4633 37.4062 32.8359 35.8887 32.5897 35.7656C31.5914 35.2734 30.2511 35.7109 29.8135 36.668C29.1707 38.0898 29.3622 38.4316 33.1367 42.2188L36.3096 45.3906L34.8052 46.8945L33.3008 48.3984L31.5914 46.7031C30.6477 45.7734 29.7451 44.9395 29.581 44.8574C29.157 44.6387 28.0903 44.666 27.6253 44.9121C26.8048 45.3359 26.4082 46.252 26.5997 47.2773C26.6817 47.6875 27.0236 48.1113 28.4869 49.6016L30.2785 51.4062L28.7468 52.9512L27.2151 54.4824L23.9739 51.2422C22.1823 49.4648 20.5823 47.9473 20.4181 47.8652C20.254 47.7832 19.8711 47.7148 19.5566 47.7148C18.0932 47.7148 17.1359 48.9453 17.5188 50.3535C17.6419 50.8457 18.1479 51.4062 20.9378 54.209L24.2064 57.4902L22.702 58.9941L21.1977 60.4844L19.5155 58.8164C17.6419 56.9707 17.1359 56.6562 16.1513 56.8066C15.3581 56.9297 14.5648 57.668 14.4281 58.4336C14.2366 59.4453 14.5101 59.9375 16.3974 61.8379L18.1206 63.5879L17.0128 64.668C15.9598 65.6934 15.8641 65.7617 15.3033 65.7617H14.7016L9.47741 60.5254L4.23953 55.3027V54.6875V54.0723L29.1707 29.1621L54.0882 4.23828H54.7037H55.3191L60.5433 9.47461ZM9.90136 6.23438C16.0829 7.79297 16.9445 8.18945 19.5976 10.7871L20.5139 11.6895L16.1102 16.0918L11.6929 20.5078L10.9681 19.7832C9.68255 18.5391 8.58847 17.0625 7.98673 15.791C7.53543 14.8203 7.1525 13.5625 6.23622 9.88477C5.59345 7.31445 5.06009 5.18164 5.06009 5.14062C5.06009 5.01758 5.03274 5.00391 9.90136 6.23438ZM27.0783 18.252L30.5657 21.7383L26.1483 26.1543L21.7447 30.5566L18.23 27.0293L14.7016 23.5156L19.0779 19.1406C21.4849 16.7344 23.4815 14.7656 23.5226 14.7656C23.5636 14.7656 25.1637 16.3379 27.0783 18.252ZM52.6249 43.791L56.8918 48.0566L52.4745 52.4727L48.0708 56.875L43.7629 52.5684L39.455 48.2617L43.8313 43.8867C46.2383 41.4805 48.235 39.5117 48.276 39.5117C48.317 39.5117 50.2727 41.4395 52.6249 43.791ZM62.3211 53.498C64.3452 55.5625 64.7144 56 65.1794 56.9434C65.7128 58.0098 65.7128 58.0371 65.7128 59.6094C65.7128 61.168 65.6991 61.2227 65.2068 62.2207C64.5503 63.5605 63.5793 64.5312 62.2391 65.1875C61.2407 65.6797 61.186 65.6934 59.627 65.6934C58.0543 65.6934 58.0269 65.6934 56.9602 65.1602C56.0165 64.6953 55.5789 64.3398 53.4728 62.2617L51.0795 59.8965L55.4558 55.5078C57.8628 53.1016 59.8732 51.1328 59.9142 51.1328C59.9552 51.1328 61.0493 52.1992 62.3211 53.498Z" fill="url(#paint0_linear_950_468)"/>
<defs>
<linearGradient id="paint0_linear_950_468" x1="-13.2617" y1="34.5205" x2="83.2843" y2="20.0893" gradientUnits="userSpaceOnUse">
<stop stop-color="#62CFF4"/>
<stop offset="1" stop-color="#2C67F2"/>
</linearGradient>
</defs>
</svg>
