<svg width="40" height="40" viewBox="0 0 40 40" fill="none" xmlns="http://www.w3.org/2000/svg">
<path d="M19.5634 0.288011C19.4268 0.492864 19.4073 0.873304 19.4365 2.92183C19.4561 4.63869 19.4951 5.34105 19.5829 5.42884C19.7389 5.58492 20.2657 5.58492 20.4218 5.42884C20.5096 5.34105 20.5486 4.63869 20.5681 2.92183C20.5974 0.239236 20.5681 0.0538936 20.0023 0.0538936C19.8072 0.0538936 19.6609 0.131933 19.5634 0.288011Z" fill="#FF3E54"/>
<path d="M19.5634 0.288011C19.4268 0.492864 19.4073 0.873304 19.4365 2.92183C19.4561 4.63869 19.4951 5.34105 19.5829 5.42884C19.7389 5.58492 20.2657 5.58492 20.4218 5.42884C20.5096 5.34105 20.5486 4.63869 20.5681 2.92183C20.5974 0.239236 20.5681 0.0538936 20.0023 0.0538936C19.8072 0.0538936 19.6609 0.131933 19.5634 0.288011Z" fill="url(#paint0_linear_959_1309)"/>
<path d="M10.0333 2.72629C9.57477 2.95065 9.67232 3.2628 10.8429 5.31133C11.4477 6.36486 12.0037 7.30133 12.0818 7.38913C12.3061 7.65251 12.7451 7.61349 12.9402 7.32084C13.1451 7.00868 13.1841 7.10623 11.7599 4.63824C11.0478 3.42864 10.5698 2.68727 10.4527 2.658C10.3454 2.63849 10.1601 2.66776 10.0333 2.72629Z" fill="#FF3E54"/>
<path d="M10.0333 2.72629C9.57477 2.95065 9.67232 3.2628 10.8429 5.31133C11.4477 6.36486 12.0037 7.30133 12.0818 7.38913C12.3061 7.65251 12.7451 7.61349 12.9402 7.32084C13.1451 7.00868 13.1841 7.10623 11.7599 4.63824C11.0478 3.42864 10.5698 2.68727 10.4527 2.658C10.3454 2.63849 10.1601 2.66776 10.0333 2.72629Z" fill="url(#paint1_linear_959_1309)"/>
<path d="M29.5235 2.67759C29.3577 2.74587 26.9287 6.80391 26.9287 7.02827C26.9287 7.0868 26.997 7.23313 27.0848 7.35018C27.2701 7.61357 27.7189 7.63308 27.9237 7.3892C28.2944 6.95999 30.2454 3.41896 30.2454 3.17509C30.2454 2.79465 29.8942 2.55078 29.5235 2.67759Z" fill="#FF3E54"/>
<path d="M29.5235 2.67759C29.3577 2.74587 26.9287 6.80391 26.9287 7.02827C26.9287 7.0868 26.997 7.23313 27.0848 7.35018C27.2701 7.61357 27.7189 7.63308 27.9237 7.3892C28.2944 6.95999 30.2454 3.41896 30.2454 3.17509C30.2454 2.79465 29.8942 2.55078 29.5235 2.67759Z" fill="url(#paint2_linear_959_1309)"/>
<path d="M18.9583 7.67228C16.1489 7.93567 13.4663 9.57449 11.8665 11.9937C11.2519 12.9204 10.9105 13.6423 10.5691 14.7836C10.2277 15.9054 10.1399 18.0612 10.3838 19.2611C10.7544 21.0658 11.4958 22.5387 12.7542 23.9922C14.0028 25.4164 14.2565 25.7579 14.5393 26.3627C14.7052 26.6846 14.8613 27.1528 14.8905 27.3869C14.949 27.7966 14.9393 27.8161 14.6076 27.9332C14.1687 28.0893 13.5834 28.6648 13.359 29.1623C13.0956 29.7476 13.1151 30.6938 13.4078 31.3279C13.6419 31.8352 14.2272 32.4009 14.6174 32.4985C14.7344 32.5375 14.832 32.5765 14.832 32.596C14.832 32.6058 14.7344 32.7911 14.6174 32.996C14.432 33.2984 14.393 33.513 14.393 34.1471C14.393 34.8299 14.432 34.986 14.6662 35.3957C14.9588 35.8932 15.6026 36.42 16.0123 36.5077C16.2367 36.5468 16.2855 36.6151 16.3342 37.015C16.4806 38.0978 17.3097 39.1806 18.3925 39.7171C18.929 39.9707 19.0656 40 20.0021 40C20.9093 40 21.0946 39.9707 21.5824 39.7366C22.6457 39.2391 23.5236 38.088 23.6699 37.015C23.7187 36.6151 23.7675 36.5468 23.9918 36.5077C24.4015 36.42 25.0454 35.8932 25.338 35.3957C25.5721 34.986 25.6111 34.8299 25.6111 34.1471C25.6111 33.513 25.5721 33.2984 25.3965 32.996C25.2697 32.7911 25.1722 32.6058 25.1722 32.596C25.1722 32.5765 25.2697 32.5375 25.3965 32.4985C25.777 32.4009 26.3623 31.8352 26.5964 31.3279C26.889 30.6938 26.9085 29.7476 26.6452 29.1623C26.4208 28.6648 25.8355 28.0893 25.3965 27.9332C25.0649 27.8161 25.0551 27.7966 25.1136 27.3869C25.2307 26.5285 25.7087 25.7774 27.25 23.9922C28.5181 22.5387 29.2497 21.0658 29.6204 19.2611C29.8643 18.0417 29.7765 15.9152 29.4253 14.7348C28.245 10.7841 25.0844 8.12101 21.0459 7.67228C20.5288 7.61375 20.0313 7.57473 19.9338 7.57473C19.8363 7.58449 19.3973 7.62351 18.9583 7.67228ZM22.3433 9.02821C25.3087 9.88664 27.6597 12.2961 28.4498 15.3201C28.723 16.3541 28.7034 18.5685 28.4108 19.5928C27.9621 21.1535 27.4256 22.09 26.0989 23.602C24.6649 25.2408 24.304 25.8847 23.9626 27.3869C23.904 27.6601 23.8943 27.6601 23.0749 27.6601H22.2457V24.4897V21.3194H23.1041C24.1967 21.3194 24.8698 21.1243 25.3868 20.656C26.7427 19.4367 26.4501 17.1931 24.8308 16.3932C24.5381 16.2468 24.2357 16.1981 23.6504 16.1981C22.9481 16.1981 22.8115 16.2273 22.392 16.4907C21.4165 17.0955 21.0751 17.8564 21.0751 19.4172V20.2463H20.0118H18.9583L18.9095 19.144C18.8413 17.632 18.5388 17.0272 17.5731 16.4614C17.1829 16.2371 17.0171 16.1981 16.344 16.1981C15.7685 16.1981 15.4661 16.2468 15.1734 16.3932C13.5541 17.1931 13.2615 19.4367 14.6174 20.656C15.1344 21.1243 15.8075 21.3194 16.9 21.3194H17.7585V24.4897V27.6601H16.9293C16.1099 27.6601 16.1001 27.6601 16.0514 27.3869C15.7392 25.9627 15.3197 25.2213 13.8663 23.5532C11.9445 21.3682 11.2324 19.505 11.3495 17.037C11.4568 14.647 12.4128 12.6375 14.2272 10.9792C15.31 9.97444 16.783 9.2038 18.1974 8.89165C19.1924 8.66728 21.3678 8.74532 22.3433 9.02821ZM16.939 17.4272C17.6024 17.7491 17.7585 18.0905 17.7585 19.2611V20.2463H17.0561C16.1099 20.2463 15.6319 20.1 15.2515 19.7001C14.7344 19.144 14.7052 18.3832 15.1929 17.7979C15.6807 17.2223 16.266 17.0955 16.939 17.4272ZM24.4796 17.4857C24.9478 17.8369 25.1234 18.1783 25.1234 18.7148C25.1234 19.0855 25.0649 19.3099 24.899 19.544C24.5479 20.0317 24.1674 20.1781 23.1529 20.2268L22.2457 20.2659V19.2709C22.2457 18.4319 22.275 18.2173 22.4408 17.9539C22.8603 17.2809 23.8845 17.0467 24.4796 17.4857ZM21.0751 24.4897V27.6601H20.0021H18.929V24.4897V21.3194H20.0021H21.0751V24.4897ZM25.0551 29.0257C26.0111 29.611 25.9721 30.9084 24.9771 31.4352C24.5576 31.6596 24.5479 31.6596 20.0021 31.6596C15.4563 31.6596 15.4465 31.6596 15.0271 31.4352C14.0321 30.9084 13.9931 29.611 14.949 29.0257C15.2612 28.8404 15.4563 28.8306 20.0021 28.8306C24.5479 28.8306 24.743 28.8404 25.0551 29.0257ZM23.7772 32.8984C24.1577 33.074 24.4601 33.4935 24.5479 33.9715C24.6454 34.469 24.2845 35.1128 23.7675 35.3567C23.3773 35.5518 23.1919 35.5615 20.0021 35.5615C16.8122 35.5615 16.6269 35.5518 16.2367 35.3567C15.2222 34.8689 15.2027 33.3959 16.2074 32.8984C16.5001 32.7619 16.9683 32.7326 19.9826 32.7326C23.0066 32.7326 23.4748 32.7521 23.7772 32.8984ZM22.6359 36.7516C22.6359 37.015 22.1677 37.8734 21.8555 38.1758C21.3092 38.7319 20.8313 38.927 20.0021 38.927C19.1729 38.927 18.6949 38.7319 18.1487 38.1758C17.8365 37.8734 17.3683 37.015 17.3683 36.7516C17.3683 36.6638 17.9633 36.6346 20.0021 36.6346C22.0409 36.6346 22.6359 36.6638 22.6359 36.7516Z" fill="#FF3E54"/>
<path d="M18.9583 7.67228C16.1489 7.93567 13.4663 9.57449 11.8665 11.9937C11.2519 12.9204 10.9105 13.6423 10.5691 14.7836C10.2277 15.9054 10.1399 18.0612 10.3838 19.2611C10.7544 21.0658 11.4958 22.5387 12.7542 23.9922C14.0028 25.4164 14.2565 25.7579 14.5393 26.3627C14.7052 26.6846 14.8613 27.1528 14.8905 27.3869C14.949 27.7966 14.9393 27.8161 14.6076 27.9332C14.1687 28.0893 13.5834 28.6648 13.359 29.1623C13.0956 29.7476 13.1151 30.6938 13.4078 31.3279C13.6419 31.8352 14.2272 32.4009 14.6174 32.4985C14.7344 32.5375 14.832 32.5765 14.832 32.596C14.832 32.6058 14.7344 32.7911 14.6174 32.996C14.432 33.2984 14.393 33.513 14.393 34.1471C14.393 34.8299 14.432 34.986 14.6662 35.3957C14.9588 35.8932 15.6026 36.42 16.0123 36.5077C16.2367 36.5468 16.2855 36.6151 16.3342 37.015C16.4806 38.0978 17.3097 39.1806 18.3925 39.7171C18.929 39.9707 19.0656 40 20.0021 40C20.9093 40 21.0946 39.9707 21.5824 39.7366C22.6457 39.2391 23.5236 38.088 23.6699 37.015C23.7187 36.6151 23.7675 36.5468 23.9918 36.5077C24.4015 36.42 25.0454 35.8932 25.338 35.3957C25.5721 34.986 25.6111 34.8299 25.6111 34.1471C25.6111 33.513 25.5721 33.2984 25.3965 32.996C25.2697 32.7911 25.1722 32.6058 25.1722 32.596C25.1722 32.5765 25.2697 32.5375 25.3965 32.4985C25.777 32.4009 26.3623 31.8352 26.5964 31.3279C26.889 30.6938 26.9085 29.7476 26.6452 29.1623C26.4208 28.6648 25.8355 28.0893 25.3965 27.9332C25.0649 27.8161 25.0551 27.7966 25.1136 27.3869C25.2307 26.5285 25.7087 25.7774 27.25 23.9922C28.5181 22.5387 29.2497 21.0658 29.6204 19.2611C29.8643 18.0417 29.7765 15.9152 29.4253 14.7348C28.245 10.7841 25.0844 8.12101 21.0459 7.67228C20.5288 7.61375 20.0313 7.57473 19.9338 7.57473C19.8363 7.58449 19.3973 7.62351 18.9583 7.67228ZM22.3433 9.02821C25.3087 9.88664 27.6597 12.2961 28.4498 15.3201C28.723 16.3541 28.7034 18.5685 28.4108 19.5928C27.9621 21.1535 27.4256 22.09 26.0989 23.602C24.6649 25.2408 24.304 25.8847 23.9626 27.3869C23.904 27.6601 23.8943 27.6601 23.0749 27.6601H22.2457V24.4897V21.3194H23.1041C24.1967 21.3194 24.8698 21.1243 25.3868 20.656C26.7427 19.4367 26.4501 17.1931 24.8308 16.3932C24.5381 16.2468 24.2357 16.1981 23.6504 16.1981C22.9481 16.1981 22.8115 16.2273 22.392 16.4907C21.4165 17.0955 21.0751 17.8564 21.0751 19.4172V20.2463H20.0118H18.9583L18.9095 19.144C18.8413 17.632 18.5388 17.0272 17.5731 16.4614C17.1829 16.2371 17.0171 16.1981 16.344 16.1981C15.7685 16.1981 15.4661 16.2468 15.1734 16.3932C13.5541 17.1931 13.2615 19.4367 14.6174 20.656C15.1344 21.1243 15.8075 21.3194 16.9 21.3194H17.7585V24.4897V27.6601H16.9293C16.1099 27.6601 16.1001 27.6601 16.0514 27.3869C15.7392 25.9627 15.3197 25.2213 13.8663 23.5532C11.9445 21.3682 11.2324 19.505 11.3495 17.037C11.4568 14.647 12.4128 12.6375 14.2272 10.9792C15.31 9.97444 16.783 9.2038 18.1974 8.89165C19.1924 8.66728 21.3678 8.74532 22.3433 9.02821ZM16.939 17.4272C17.6024 17.7491 17.7585 18.0905 17.7585 19.2611V20.2463H17.0561C16.1099 20.2463 15.6319 20.1 15.2515 19.7001C14.7344 19.144 14.7052 18.3832 15.1929 17.7979C15.6807 17.2223 16.266 17.0955 16.939 17.4272ZM24.4796 17.4857C24.9478 17.8369 25.1234 18.1783 25.1234 18.7148C25.1234 19.0855 25.0649 19.3099 24.899 19.544C24.5479 20.0317 24.1674 20.1781 23.1529 20.2268L22.2457 20.2659V19.2709C22.2457 18.4319 22.275 18.2173 22.4408 17.9539C22.8603 17.2809 23.8845 17.0467 24.4796 17.4857ZM21.0751 24.4897V27.6601H20.0021H18.929V24.4897V21.3194H20.0021H21.0751V24.4897ZM25.0551 29.0257C26.0111 29.611 25.9721 30.9084 24.9771 31.4352C24.5576 31.6596 24.5479 31.6596 20.0021 31.6596C15.4563 31.6596 15.4465 31.6596 15.0271 31.4352C14.0321 30.9084 13.9931 29.611 14.949 29.0257C15.2612 28.8404 15.4563 28.8306 20.0021 28.8306C24.5479 28.8306 24.743 28.8404 25.0551 29.0257ZM23.7772 32.8984C24.1577 33.074 24.4601 33.4935 24.5479 33.9715C24.6454 34.469 24.2845 35.1128 23.7675 35.3567C23.3773 35.5518 23.1919 35.5615 20.0021 35.5615C16.8122 35.5615 16.6269 35.5518 16.2367 35.3567C15.2222 34.8689 15.2027 33.3959 16.2074 32.8984C16.5001 32.7619 16.9683 32.7326 19.9826 32.7326C23.0066 32.7326 23.4748 32.7521 23.7772 32.8984ZM22.6359 36.7516C22.6359 37.015 22.1677 37.8734 21.8555 38.1758C21.3092 38.7319 20.8313 38.927 20.0021 38.927C19.1729 38.927 18.6949 38.7319 18.1487 38.1758C17.8365 37.8734 17.3683 37.015 17.3683 36.7516C17.3683 36.6638 17.9633 36.6346 20.0021 36.6346C22.0409 36.6346 22.6359 36.6638 22.6359 36.7516Z" fill="url(#paint3_linear_959_1309)"/>
<path d="M2.68735 10.0429C2.39471 10.4819 2.58005 10.638 4.79441 11.9159C5.94549 12.5792 6.93073 13.1255 6.97951 13.1255C7.03804 13.1255 7.18436 13.0572 7.30142 12.9694C7.5648 12.7841 7.58431 12.3353 7.35019 12.1305C7.25264 12.0525 6.32593 11.4964 5.28216 10.9014C3.27265 9.74054 2.95074 9.63324 2.68735 10.0429Z" fill="#FF3E54"/>
<path d="M2.68735 10.0429C2.39471 10.4819 2.58005 10.638 4.79441 11.9159C5.94549 12.5792 6.93073 13.1255 6.97951 13.1255C7.03804 13.1255 7.18436 13.0572 7.30142 12.9694C7.5648 12.7841 7.58431 12.3353 7.35019 12.1305C7.25264 12.0525 6.32593 11.4964 5.28216 10.9014C3.27265 9.74054 2.95074 9.63324 2.68735 10.0429Z" fill="url(#paint4_linear_959_1309)"/>
<path d="M34.6637 10.9301C33.6297 11.5252 32.7225 12.0812 32.6347 12.1495C32.4103 12.3349 32.4493 12.7933 32.7029 12.9689C32.82 13.0567 32.9663 13.125 33.0249 13.125C33.0736 13.125 34.0589 12.5787 35.21 11.9154C37.4243 10.6375 37.6097 10.4814 37.317 10.0425C37.0439 9.62299 36.6927 9.74005 34.6637 10.9301Z" fill="#FF3E54"/>
<path d="M34.6637 10.9301C33.6297 11.5252 32.7225 12.0812 32.6347 12.1495C32.4103 12.3349 32.4493 12.7933 32.7029 12.9689C32.82 13.0567 32.9663 13.125 33.0249 13.125C33.0736 13.125 34.0589 12.5787 35.21 11.9154C37.4243 10.6375 37.6097 10.4814 37.317 10.0425C37.0439 9.62299 36.6927 9.74005 34.6637 10.9301Z" fill="url(#paint5_linear_959_1309)"/>
<path d="M0.229297 19.6124C-0.0828594 19.827 -0.0731045 20.2855 0.239052 20.4904C0.443905 20.6269 0.824346 20.6464 2.87287 20.6172C4.58973 20.5977 5.29209 20.5586 5.37988 20.4708C5.53596 20.3148 5.53596 19.788 5.37988 19.6319C5.29209 19.5441 4.57998 19.5051 2.85336 19.4856C0.775571 19.4661 0.41464 19.4758 0.229297 19.6124Z" fill="#FF3E54"/>
<path d="M0.229297 19.6124C-0.0828594 19.827 -0.0731045 20.2855 0.239052 20.4904C0.443905 20.6269 0.824346 20.6464 2.87287 20.6172C4.58973 20.5977 5.29209 20.5586 5.37988 20.4708C5.53596 20.3148 5.53596 19.788 5.37988 19.6319C5.29209 19.5441 4.57998 19.5051 2.85336 19.4856C0.775571 19.4661 0.41464 19.4758 0.229297 19.6124Z" fill="url(#paint6_linear_959_1309)"/>
<path d="M34.7712 19.5637C34.3615 19.7295 34.381 20.3831 34.8004 20.5489C34.9273 20.5977 36.0588 20.6367 37.2977 20.6367C39.8145 20.6367 39.9998 20.5977 39.9998 20.0514C39.9998 19.5052 39.8242 19.4661 37.2684 19.4759C36.0101 19.4759 34.8882 19.5149 34.7712 19.5637Z" fill="#FF3E54"/>
<path d="M34.7712 19.5637C34.3615 19.7295 34.381 20.3831 34.8004 20.5489C34.9273 20.5977 36.0588 20.6367 37.2977 20.6367C39.8145 20.6367 39.9998 20.5977 39.9998 20.0514C39.9998 19.5052 39.8242 19.4661 37.2684 19.4759C36.0101 19.4759 34.8882 19.5149 34.7712 19.5637Z" fill="url(#paint7_linear_959_1309)"/>
<path d="M4.79441 28.1869C2.58005 29.4648 2.39471 29.6208 2.68735 30.0598C2.95074 30.4695 3.27265 30.3622 5.28216 29.2014C6.32593 28.6063 7.25264 28.0503 7.35019 27.9723C7.58431 27.7674 7.5648 27.3187 7.30142 27.1333C7.18436 27.0456 7.03804 26.9773 6.97951 26.9773C6.93073 26.9773 5.94549 27.5235 4.79441 28.1869Z" fill="#FF3E54"/>
<path d="M4.79441 28.1869C2.58005 29.4648 2.39471 29.6208 2.68735 30.0598C2.95074 30.4695 3.27265 30.3622 5.28216 29.2014C6.32593 28.6063 7.25264 28.0503 7.35019 27.9723C7.58431 27.7674 7.5648 27.3187 7.30142 27.1333C7.18436 27.0456 7.03804 26.9773 6.97951 26.9773C6.93073 26.9773 5.94549 27.5235 4.79441 28.1869Z" fill="url(#paint8_linear_959_1309)"/>
<path d="M32.7029 27.1331C32.4493 27.3087 32.4103 27.7672 32.6347 27.9525C32.7225 28.0208 33.6492 28.5768 34.7027 29.1816C36.7415 30.362 37.0536 30.4693 37.317 30.0596C37.6097 29.6206 37.4243 29.4645 35.21 28.1866C34.0589 27.5233 33.0736 26.977 33.0249 26.977C32.9663 26.977 32.82 27.0453 32.7029 27.1331Z" fill="#FF3E54"/>
<path d="M32.7029 27.1331C32.4493 27.3087 32.4103 27.7672 32.6347 27.9525C32.7225 28.0208 33.6492 28.5768 34.7027 29.1816C36.7415 30.362 37.0536 30.4693 37.317 30.0596C37.6097 29.6206 37.4243 29.4645 35.21 28.1866C34.0589 27.5233 33.0736 26.977 33.0249 26.977C32.9663 26.977 32.82 27.0453 32.7029 27.1331Z" fill="url(#paint9_linear_959_1309)"/>
<defs>
<linearGradient id="paint0_linear_959_1309" x1="19.2068" y1="2.76228" x2="20.828" y2="2.71149" gradientUnits="userSpaceOnUse">
<stop stop-color="#62CFF4"/>
<stop offset="1" stop-color="#2C67F2"/>
</linearGradient>
<linearGradient id="paint1_linear_959_1309" x1="9.15945" y1="5.07505" x2="13.7205" y2="4.62179" gradientUnits="userSpaceOnUse">
<stop stop-color="#62CFF4"/>
<stop offset="1" stop-color="#2C67F2"/>
</linearGradient>
<linearGradient id="paint2_linear_959_1309" x1="26.3004" y1="5.06848" x2="30.9299" y2="4.60168" gradientUnits="userSpaceOnUse">
<stop stop-color="#62CFF4"/>
<stop offset="1" stop-color="#2C67F2"/>
</linearGradient>
<linearGradient id="paint3_linear_959_1309" x1="6.54825" y1="23.5653" x2="33.8421" y2="21.1101" gradientUnits="userSpaceOnUse">
<stop stop-color="#62CFF4"/>
<stop offset="1" stop-color="#2C67F2"/>
</linearGradient>
<linearGradient id="paint4_linear_959_1309" x1="1.64547" y1="11.4528" x2="8.27068" y2="9.97248" gradientUnits="userSpaceOnUse">
<stop stop-color="#62CFF4"/>
<stop offset="1" stop-color="#2C67F2"/>
</linearGradient>
<linearGradient id="paint5_linear_959_1309" x1="31.552" y1="11.4507" x2="38.1824" y2="9.96949" gradientUnits="userSpaceOnUse">
<stop stop-color="#62CFF4"/>
<stop offset="1" stop-color="#2C67F2"/>
</linearGradient>
<linearGradient id="paint6_linear_959_1309" x1="-1.04141" y1="20.0455" x2="4.09287" y2="16.3802" gradientUnits="userSpaceOnUse">
<stop stop-color="#62CFF4"/>
<stop offset="1" stop-color="#2C67F2"/>
</linearGradient>
<linearGradient id="paint7_linear_959_1309" x1="33.4278" y1="20.0478" x2="38.604" y2="16.3689" gradientUnits="userSpaceOnUse">
<stop stop-color="#62CFF4"/>
<stop offset="1" stop-color="#2C67F2"/>
</linearGradient>
<linearGradient id="paint8_linear_959_1309" x1="1.64547" y1="28.6047" x2="8.27068" y2="27.1243" gradientUnits="userSpaceOnUse">
<stop stop-color="#62CFF4"/>
<stop offset="1" stop-color="#2C67F2"/>
</linearGradient>
<linearGradient id="paint9_linear_959_1309" x1="31.552" y1="28.6041" x2="38.1817" y2="27.1213" gradientUnits="userSpaceOnUse">
<stop stop-color="#62CFF4"/>
<stop offset="1" stop-color="#2C67F2"/>
</linearGradient>
</defs>
</svg>
