<svg width="70" height="70" viewBox="0 0 70 70" fill="none" xmlns="http://www.w3.org/2000/svg">
<path d="M2.60051 0.227516C2.21771 0.364197 1.6982 0.733238 1.21971 1.21162C-0.120079 2.56477 0.00296266 -1.00262 0.00296266 34.9856C0.00296266 70.9738 -0.120079 67.4064 1.21971 68.7596C2.55949 70.0991 -0.0380517 69.976 27.619 69.976C55.276 69.976 52.6785 70.0991 54.0183 68.7596C55.358 67.4064 55.235 70.9738 55.235 34.9856C55.235 -1.00262 55.358 2.56477 54.0183 1.21162C52.6785 -0.127853 55.276 -0.00484467 27.5643 0.00882721C5.70389 0.00882721 3.14736 0.0361633 2.60051 0.227516ZM51.7762 3.08416C51.9812 3.2345 52.2273 3.57621 52.323 3.83591C52.5554 4.50565 52.5554 65.4656 52.323 66.1353C52.2273 66.395 51.9812 66.7367 51.7762 66.887L51.3934 67.1741H27.619H3.8446L3.4618 66.887C3.25673 66.7367 2.99698 66.3677 2.90128 66.0806C2.76456 65.6842 2.73722 59.2192 2.76456 34.7122L2.80558 3.83591L3.09268 3.45319C3.24306 3.24818 3.58484 3.00215 3.8446 2.90647C4.20005 2.78345 9.83262 2.74245 27.8514 2.76979L51.3934 2.79713L51.7762 3.08416Z" fill="#FF3E54"/>
<path d="M2.60051 0.227516C2.21771 0.364197 1.6982 0.733238 1.21971 1.21162C-0.120079 2.56477 0.00296266 -1.00262 0.00296266 34.9856C0.00296266 70.9738 -0.120079 67.4064 1.21971 68.7596C2.55949 70.0991 -0.0380517 69.976 27.619 69.976C55.276 69.976 52.6785 70.0991 54.0183 68.7596C55.358 67.4064 55.235 70.9738 55.235 34.9856C55.235 -1.00262 55.358 2.56477 54.0183 1.21162C52.6785 -0.127853 55.276 -0.00484467 27.5643 0.00882721C5.70389 0.00882721 3.14736 0.0361633 2.60051 0.227516ZM51.7762 3.08416C51.9812 3.2345 52.2273 3.57621 52.323 3.83591C52.5554 4.50565 52.5554 65.4656 52.323 66.1353C52.2273 66.395 51.9812 66.7367 51.7762 66.887L51.3934 67.1741H27.619H3.8446L3.4618 66.887C3.25673 66.7367 2.99698 66.3677 2.90128 66.0806C2.76456 65.6842 2.73722 59.2192 2.76456 34.7122L2.80558 3.83591L3.09268 3.45319C3.24306 3.24818 3.58484 3.00215 3.8446 2.90647C4.20005 2.78345 9.83262 2.74245 27.8514 2.76979L51.3934 2.79713L51.7762 3.08416Z" fill="url(#paint0_linear_950_522)"/>
<path d="M25.2402 11.0117C24.9531 11.2988 24.8848 11.5038 24.8848 12.0232C24.8848 12.5426 24.9531 12.7476 25.2402 13.0346L25.6093 13.39H30.7498C36.4507 13.39 36.3413 13.4037 36.6421 12.5016C36.7651 12.1462 36.7651 11.9002 36.6421 11.5448C36.3413 10.6427 36.4507 10.6564 30.7498 10.6564H25.6093L25.2402 11.0117Z" fill="#FF3E54"/>
<path d="M25.2402 11.0117C24.9531 11.2988 24.8848 11.5038 24.8848 12.0232C24.8848 12.5426 24.9531 12.7476 25.2402 13.0346L25.6093 13.39H30.7498C36.4507 13.39 36.3413 13.4037 36.6421 12.5016C36.7651 12.1462 36.7651 11.9002 36.6421 11.5448C36.3413 10.6427 36.4507 10.6564 30.7498 10.6564H25.6093L25.2402 11.0117Z" fill="url(#paint1_linear_950_522)"/>
<path d="M40.5928 11.0526C40.2783 11.367 40.1963 11.572 40.1963 12.0231C40.1963 12.4741 40.2783 12.6791 40.5928 12.9935L40.9892 13.3899H44.0653H47.1276L47.4968 13.0345C48.0026 12.5151 48.0026 11.531 47.4968 11.0116L47.1276 10.6563H44.0653H40.9892L40.5928 11.0526Z" fill="#FF3E54"/>
<path d="M40.5928 11.0526C40.2783 11.367 40.1963 11.572 40.1963 12.0231C40.1963 12.4741 40.2783 12.6791 40.5928 12.9935L40.9892 13.3899H44.0653H47.1276L47.4968 13.0345C48.0026 12.5151 48.0026 11.531 47.4968 11.0116L47.1276 10.6563H44.0653H40.9892L40.5928 11.0526Z" fill="url(#paint2_linear_950_522)"/>
<path d="M17.0924 13.4992C16.8736 13.5265 15.7936 14.5106 14.194 16.0961L11.6375 18.6247L10.5301 17.586C9.49112 16.5745 9.40909 16.5335 8.79389 16.5335C8.28805 16.5335 8.06931 16.6019 7.76854 16.9026C7.4541 17.2033 7.38574 17.3809 7.38574 17.955V18.6247L9.13567 20.3879L10.8993 22.1375H11.6238H12.3484L15.3424 19.1578C16.9967 17.5313 18.4732 16.0278 18.6099 15.8228C18.9243 15.3854 18.979 14.5243 18.7192 14.1006C18.4322 13.6359 17.7349 13.3762 17.0924 13.4992Z" fill="#FF3E54"/>
<path d="M17.0924 13.4992C16.8736 13.5265 15.7936 14.5106 14.194 16.0961L11.6375 18.6247L10.5301 17.586C9.49112 16.5745 9.40909 16.5335 8.79389 16.5335C8.28805 16.5335 8.06931 16.6019 7.76854 16.9026C7.4541 17.2033 7.38574 17.3809 7.38574 17.955V18.6247L9.13567 20.3879L10.8993 22.1375H11.6238H12.3484L15.3424 19.1578C16.9967 17.5313 18.4732 16.0278 18.6099 15.8228C18.9243 15.3854 18.979 14.5243 18.7192 14.1006C18.4322 13.6359 17.7349 13.3762 17.0924 13.4992Z" fill="url(#paint3_linear_950_522)"/>
<path d="M25.2402 19.7592C24.9531 20.0462 24.8848 20.2512 24.8848 20.7706C24.8848 21.29 24.9531 21.495 25.2402 21.7821L25.6093 22.1375H36.3687H47.128L47.4971 21.7821C48.0029 21.2627 48.0029 20.2786 47.4971 19.7592L47.128 19.4038H36.3687H25.6093L25.2402 19.7592Z" fill="#FF3E54"/>
<path d="M25.2402 19.7592C24.9531 20.0462 24.8848 20.2512 24.8848 20.7706C24.8848 21.29 24.9531 21.495 25.2402 21.7821L25.6093 22.1375H36.3687H47.128L47.4971 21.7821C48.0029 21.2627 48.0029 20.2786 47.4971 19.7592L47.128 19.4038H36.3687H25.6093L25.2402 19.7592Z" fill="url(#paint4_linear_950_522)"/>
<path d="M7.7412 29.6005C7.4541 29.9012 7.38574 30.0925 7.38574 30.6392V31.3226L9.19035 33.1542L10.9813 34.9857L9.19035 36.8172L7.38574 38.6488V39.3322C7.38574 40.2753 7.83689 40.7263 8.78021 40.7263H9.46378L11.2957 38.9221L13.1277 37.1316L14.9596 38.9221L16.7916 40.7263H17.4752C18.4185 40.7263 18.8696 40.2753 18.8696 39.3322V38.6488L17.065 36.8172L15.2741 34.9857L17.065 33.1542L18.8696 31.3226V30.6392C18.8696 29.6961 18.4185 29.2451 17.4752 29.2451H16.7916L14.9596 31.0493L13.1277 32.8398L11.2957 31.0493L9.46378 29.2451H8.78021C8.23336 29.2451 8.04196 29.3134 7.7412 29.6005Z" fill="#FF3E54"/>
<path d="M7.7412 29.6005C7.4541 29.9012 7.38574 30.0925 7.38574 30.6392V31.3226L9.19035 33.1542L10.9813 34.9857L9.19035 36.8172L7.38574 38.6488V39.3322C7.38574 40.2753 7.83689 40.7263 8.78021 40.7263H9.46378L11.2957 38.9221L13.1277 37.1316L14.9596 38.9221L16.7916 40.7263H17.4752C18.4185 40.7263 18.8696 40.2753 18.8696 39.3322V38.6488L17.065 36.8172L15.2741 34.9857L17.065 33.1542L18.8696 31.3226V30.6392C18.8696 29.6961 18.4185 29.2451 17.4752 29.2451H16.7916L14.9596 31.0493L13.1277 32.8398L11.2957 31.0493L9.46378 29.2451H8.78021C8.23336 29.2451 8.04196 29.3134 7.7412 29.6005Z" fill="url(#paint5_linear_950_522)"/>
<path d="M25.2402 29.6004C24.9531 29.8874 24.8848 30.0924 24.8848 30.6118C24.8848 31.1312 24.9531 31.3362 25.2402 31.6233L25.6093 31.9786H30.7498C36.4507 31.9786 36.3413 31.9923 36.6421 31.0902C36.7651 30.7348 36.7651 30.4888 36.6421 30.1334C36.3413 29.2313 36.4507 29.245 30.7498 29.245H25.6093L25.2402 29.6004Z" fill="#FF3E54"/>
<path d="M25.2402 29.6004C24.9531 29.8874 24.8848 30.0924 24.8848 30.6118C24.8848 31.1312 24.9531 31.3362 25.2402 31.6233L25.6093 31.9786H30.7498C36.4507 31.9786 36.3413 31.9923 36.6421 31.0902C36.7651 30.7348 36.7651 30.4888 36.6421 30.1334C36.3413 29.2313 36.4507 29.245 30.7498 29.245H25.6093L25.2402 29.6004Z" fill="url(#paint6_linear_950_522)"/>
<path d="M40.5928 29.6414C40.2783 29.9558 40.1963 30.1608 40.1963 30.6118C40.1963 31.0629 40.2783 31.2679 40.5928 31.5823L40.9892 31.9786H44.0653H47.1276L47.4968 31.6233C48.0026 31.1039 48.0026 30.1198 47.4968 29.6004L47.1276 29.245H44.0653H40.9892L40.5928 29.6414Z" fill="#FF3E54"/>
<path d="M40.5928 29.6414C40.2783 29.9558 40.1963 30.1608 40.1963 30.6118C40.1963 31.0629 40.2783 31.2679 40.5928 31.5823L40.9892 31.9786H44.0653H47.1276L47.4968 31.6233C48.0026 31.1039 48.0026 30.1198 47.4968 29.6004L47.1276 29.245H44.0653H40.9892L40.5928 29.6414Z" fill="url(#paint7_linear_950_522)"/>
<path d="M25.2402 38.3481C24.9531 38.6351 24.8848 38.8401 24.8848 39.3595C24.8848 39.8789 24.9531 40.0839 25.2402 40.3709L25.6093 40.7263H36.3687H47.128L47.4971 40.3709C48.0029 39.8516 48.0029 38.8675 47.4971 38.3481L47.128 37.9927H36.3687H25.6093L25.2402 38.3481Z" fill="#FF3E54"/>
<path d="M25.2402 38.3481C24.9531 38.6351 24.8848 38.8401 24.8848 39.3595C24.8848 39.8789 24.9531 40.0839 25.2402 40.3709L25.6093 40.7263H36.3687H47.128L47.4971 40.3709C48.0029 39.8516 48.0029 38.8675 47.4971 38.3481L47.128 37.9927H36.3687H25.6093L25.2402 38.3481Z" fill="url(#paint8_linear_950_522)"/>
<path d="M7.7412 48.1891C7.4541 48.4898 7.38574 48.6811 7.38574 49.2279V49.9113L9.19035 51.7428L10.9813 53.5743L9.19035 55.4059L7.38574 57.2374V57.9208C7.38574 58.8639 7.83689 59.3149 8.78021 59.3149H9.46378L11.2957 57.5107L13.1277 55.7202L14.9596 57.5107L16.7916 59.3149H17.4752C18.4185 59.3149 18.8696 58.8639 18.8696 57.9208V57.2374L17.065 55.4059L15.2741 53.5743L17.065 51.7428L18.8696 49.9113V49.2279C18.8696 48.2848 18.4185 47.8337 17.4752 47.8337H16.7916L14.9596 49.6379L13.1277 51.4284L11.2957 49.6379L9.46378 47.8337H8.78021C8.23336 47.8337 8.04196 47.902 7.7412 48.1891Z" fill="#FF3E54"/>
<path d="M7.7412 48.1891C7.4541 48.4898 7.38574 48.6811 7.38574 49.2279V49.9113L9.19035 51.7428L10.9813 53.5743L9.19035 55.4059L7.38574 57.2374V57.9208C7.38574 58.8639 7.83689 59.3149 8.78021 59.3149H9.46378L11.2957 57.5107L13.1277 55.7202L14.9596 57.5107L16.7916 59.3149H17.4752C18.4185 59.3149 18.8696 58.8639 18.8696 57.9208V57.2374L17.065 55.4059L15.2741 53.5743L17.065 51.7428L18.8696 49.9113V49.2279C18.8696 48.2848 18.4185 47.8337 17.4752 47.8337H16.7916L14.9596 49.6379L13.1277 51.4284L11.2957 49.6379L9.46378 47.8337H8.78021C8.23336 47.8337 8.04196 47.902 7.7412 48.1891Z" fill="url(#paint9_linear_950_522)"/>
<path d="M25.2402 48.189C24.9531 48.476 24.8848 48.681 24.8848 49.2004C24.8848 49.7198 24.9531 49.9248 25.2402 50.2119L25.6093 50.5672H30.7498C36.4507 50.5672 36.3413 50.5809 36.6421 49.6788C36.7651 49.3234 36.7651 49.0774 36.6421 48.722C36.3413 47.82 36.4507 47.8336 30.7498 47.8336H25.6093L25.2402 48.189Z" fill="#FF3E54"/>
<path d="M25.2402 48.189C24.9531 48.476 24.8848 48.681 24.8848 49.2004C24.8848 49.7198 24.9531 49.9248 25.2402 50.2119L25.6093 50.5672H30.7498C36.4507 50.5672 36.3413 50.5809 36.6421 49.6788C36.7651 49.3234 36.7651 49.0774 36.6421 48.722C36.3413 47.82 36.4507 47.8336 30.7498 47.8336H25.6093L25.2402 48.189Z" fill="url(#paint10_linear_950_522)"/>
<path d="M40.5928 48.23C40.2783 48.5444 40.1963 48.7494 40.1963 49.2004C40.1963 49.6515 40.2783 49.8565 40.5928 50.1709L40.9892 50.5673H44.0653H47.1276L47.4968 50.2119C48.0026 49.6925 48.0026 48.7084 47.4968 48.189L47.1276 47.8336H44.0653H40.9892L40.5928 48.23Z" fill="#FF3E54"/>
<path d="M40.5928 48.23C40.2783 48.5444 40.1963 48.7494 40.1963 49.2004C40.1963 49.6515 40.2783 49.8565 40.5928 50.1709L40.9892 50.5673H44.0653H47.1276L47.4968 50.2119C48.0026 49.6925 48.0026 48.7084 47.4968 48.189L47.1276 47.8336H44.0653H40.9892L40.5928 48.23Z" fill="url(#paint11_linear_950_522)"/>
<path d="M25.2402 56.9367C24.9531 57.2237 24.8848 57.4287 24.8848 57.9481C24.8848 58.4675 24.9531 58.6725 25.2402 58.9596L25.6093 59.3149H36.3687H47.128L47.4971 58.9596C48.0029 58.4402 48.0029 57.4561 47.4971 56.9367L47.128 56.5813H36.3687H25.6093L25.2402 56.9367Z" fill="#FF3E54"/>
<path d="M25.2402 56.9367C24.9531 57.2237 24.8848 57.4287 24.8848 57.9481C24.8848 58.4675 24.9531 58.6725 25.2402 58.9596L25.6093 59.3149H36.3687H47.128L47.4971 58.9596C48.0029 58.4402 48.0029 57.4561 47.4971 56.9367L47.128 56.5813H36.3687H25.6093L25.2402 56.9367Z" fill="url(#paint12_linear_950_522)"/>
<path d="M62.8358 7.70402C61.414 8.30542 60.416 9.33053 59.8965 10.7247C59.6094 11.4764 59.6094 11.6814 59.6094 22.3289V33.1678L59.9648 33.5368C60.4843 34.0425 61.4687 34.0425 61.9882 33.5368L62.3436 33.1678V25.0626V16.9437H64.8045H67.2653V37.7876V58.6315H64.8045H62.3436V51.4011V44.1843L61.9882 43.8153C61.4687 43.3095 60.4843 43.3095 59.9648 43.8153L59.6094 44.1843V52.3988V60.6271L61.578 64.9872C62.6581 67.3928 63.6834 69.4977 63.8475 69.6617C64.2713 70.1128 65.3376 70.1128 65.7615 69.6617C65.9255 69.484 66.9509 67.3791 68.0309 64.9872L69.9996 60.6271L69.9722 35.8741L69.9312 11.1347L69.4937 10.2326C68.9605 9.15284 68.0992 8.31909 67.0192 7.81337C66.3767 7.51266 66.0075 7.44432 64.9412 7.40332C63.8201 7.37598 63.533 7.41699 62.8358 7.70402ZM65.8025 10.4376C66.7321 10.8204 67.2653 11.9275 67.2653 13.4583V14.0734H64.8045H62.3436V13.4583C62.3436 11.4354 63.2186 10.2463 64.7088 10.2463C65.0642 10.2463 65.5564 10.3283 65.8025 10.4376ZM65.6521 63.2104C65.2283 64.1535 64.8455 64.9189 64.8045 64.9189C64.7635 64.9189 64.3807 64.1535 63.9568 63.2104L63.1913 61.5018H64.8045H66.4177L65.6521 63.2104Z" fill="#FF3E54"/>
<path d="M62.8358 7.70402C61.414 8.30542 60.416 9.33053 59.8965 10.7247C59.6094 11.4764 59.6094 11.6814 59.6094 22.3289V33.1678L59.9648 33.5368C60.4843 34.0425 61.4687 34.0425 61.9882 33.5368L62.3436 33.1678V25.0626V16.9437H64.8045H67.2653V37.7876V58.6315H64.8045H62.3436V51.4011V44.1843L61.9882 43.8153C61.4687 43.3095 60.4843 43.3095 59.9648 43.8153L59.6094 44.1843V52.3988V60.6271L61.578 64.9872C62.6581 67.3928 63.6834 69.4977 63.8475 69.6617C64.2713 70.1128 65.3376 70.1128 65.7615 69.6617C65.9255 69.484 66.9509 67.3791 68.0309 64.9872L69.9996 60.6271L69.9722 35.8741L69.9312 11.1347L69.4937 10.2326C68.9605 9.15284 68.0992 8.31909 67.0192 7.81337C66.3767 7.51266 66.0075 7.44432 64.9412 7.40332C63.8201 7.37598 63.533 7.41699 62.8358 7.70402ZM65.8025 10.4376C66.7321 10.8204 67.2653 11.9275 67.2653 13.4583V14.0734H64.8045H62.3436V13.4583C62.3436 11.4354 63.2186 10.2463 64.7088 10.2463C65.0642 10.2463 65.5564 10.3283 65.8025 10.4376ZM65.6521 63.2104C65.2283 64.1535 64.8455 64.9189 64.8045 64.9189C64.7635 64.9189 64.3807 64.1535 63.9568 63.2104L63.1913 61.5018H64.8045H66.4177L65.6521 63.2104Z" fill="url(#paint13_linear_950_522)"/>
<path d="M59.9648 37.6646C59.6777 37.9516 59.6094 38.1566 59.6094 38.676C59.6094 39.1954 59.6777 39.4004 59.9648 39.6875C60.2519 39.9745 60.457 40.0428 60.9765 40.0428C61.496 40.0428 61.7011 39.9745 61.9882 39.6875C62.2753 39.4004 62.3436 39.1954 62.3436 38.676C62.3436 38.1566 62.2753 37.9516 61.9882 37.6646C61.7011 37.3776 61.496 37.3092 60.9765 37.3092C60.457 37.3092 60.2519 37.3776 59.9648 37.6646Z" fill="#FF3E54"/>
<path d="M59.9648 37.6646C59.6777 37.9516 59.6094 38.1566 59.6094 38.676C59.6094 39.1954 59.6777 39.4004 59.9648 39.6875C60.2519 39.9745 60.457 40.0428 60.9765 40.0428C61.496 40.0428 61.7011 39.9745 61.9882 39.6875C62.2753 39.4004 62.3436 39.1954 62.3436 38.676C62.3436 38.1566 62.2753 37.9516 61.9882 37.6646C61.7011 37.3776 61.496 37.3092 60.9765 37.3092C60.457 37.3092 60.2519 37.3776 59.9648 37.6646Z" fill="url(#paint14_linear_950_522)"/>
<defs>
<linearGradient id="paint0_linear_950_522" x1="-10.465" y1="34.5102" x2="66.3536" y2="25.4465" gradientUnits="userSpaceOnUse">
<stop stop-color="#62CFF4"/>
<stop offset="1" stop-color="#2C67F2"/>
</linearGradient>
<linearGradient id="paint1_linear_950_522" x1="22.6398" y1="12.0045" x2="34.4079" y2="4.37958" gradientUnits="userSpaceOnUse">
<stop stop-color="#62CFF4"/>
<stop offset="1" stop-color="#2C67F2"/>
</linearGradient>
<linearGradient id="paint2_linear_950_522" x1="38.7413" y1="12.0044" x2="47.9469" y2="8.13862" gradientUnits="userSpaceOnUse">
<stop stop-color="#62CFF4"/>
<stop offset="1" stop-color="#2C67F2"/>
</linearGradient>
<linearGradient id="paint3_linear_950_522" x1="5.20731" y1="17.7437" x2="20.8075" y2="14.6507" gradientUnits="userSpaceOnUse">
<stop stop-color="#62CFF4"/>
<stop offset="1" stop-color="#2C67F2"/>
</linearGradient>
<linearGradient id="paint4_linear_950_522" x1="20.5289" y1="20.7519" x2="33.092" y2="4.95775" gradientUnits="userSpaceOnUse">
<stop stop-color="#62CFF4"/>
<stop offset="1" stop-color="#2C67F2"/>
</linearGradient>
<linearGradient id="paint5_linear_950_522" x1="5.21008" y1="34.9071" x2="21.0488" y2="32.539" gradientUnits="userSpaceOnUse">
<stop stop-color="#62CFF4"/>
<stop offset="1" stop-color="#2C67F2"/>
</linearGradient>
<linearGradient id="paint6_linear_950_522" x1="22.6398" y1="30.5931" x2="34.4079" y2="22.9682" gradientUnits="userSpaceOnUse">
<stop stop-color="#62CFF4"/>
<stop offset="1" stop-color="#2C67F2"/>
</linearGradient>
<linearGradient id="paint7_linear_950_522" x1="38.7413" y1="30.5931" x2="47.9469" y2="26.7274" gradientUnits="userSpaceOnUse">
<stop stop-color="#62CFF4"/>
<stop offset="1" stop-color="#2C67F2"/>
</linearGradient>
<linearGradient id="paint8_linear_950_522" x1="20.5289" y1="39.3408" x2="33.092" y2="23.5466" gradientUnits="userSpaceOnUse">
<stop stop-color="#62CFF4"/>
<stop offset="1" stop-color="#2C67F2"/>
</linearGradient>
<linearGradient id="paint9_linear_950_522" x1="5.21008" y1="53.4957" x2="21.0488" y2="51.1276" gradientUnits="userSpaceOnUse">
<stop stop-color="#62CFF4"/>
<stop offset="1" stop-color="#2C67F2"/>
</linearGradient>
<linearGradient id="paint10_linear_950_522" x1="22.6398" y1="49.1817" x2="34.4079" y2="41.5568" gradientUnits="userSpaceOnUse">
<stop stop-color="#62CFF4"/>
<stop offset="1" stop-color="#2C67F2"/>
</linearGradient>
<linearGradient id="paint11_linear_950_522" x1="38.7413" y1="49.1817" x2="47.9469" y2="45.316" gradientUnits="userSpaceOnUse">
<stop stop-color="#62CFF4"/>
<stop offset="1" stop-color="#2C67F2"/>
</linearGradient>
<linearGradient id="paint12_linear_950_522" x1="20.5289" y1="57.9294" x2="33.092" y2="42.1352" gradientUnits="userSpaceOnUse">
<stop stop-color="#62CFF4"/>
<stop offset="1" stop-color="#2C67F2"/>
</linearGradient>
<linearGradient id="paint13_linear_950_522" x1="57.6409" y1="38.2693" x2="72.2825" y2="37.9061" gradientUnits="userSpaceOnUse">
<stop stop-color="#62CFF4"/>
<stop offset="1" stop-color="#2C67F2"/>
</linearGradient>
<linearGradient id="paint14_linear_950_522" x1="59.0914" y1="38.6573" x2="62.8625" y2="38.0935" gradientUnits="userSpaceOnUse">
<stop stop-color="#62CFF4"/>
<stop offset="1" stop-color="#2C67F2"/>
</linearGradient>
</defs>
</svg>
