<svg width="24" height="24" viewBox="0 0 24 24" fill="none" xmlns="http://www.w3.org/2000/svg">
<path d="M11.9973 0.74707C7.44985 0.74707 3.74805 4.44888 3.74805 8.99633C3.74804 16.9979 11.5322 23.081 11.5322 23.081C11.6651 23.187 11.8301 23.2447 12.0001 23.2447C12.1701 23.2447 12.335 23.187 12.4679 23.081C12.4679 23.081 20.2521 16.9979 20.2521 8.99633C20.2521 4.44888 16.5448 0.74707 11.9973 0.74707ZM11.9973 2.24744C15.7341 2.24744 18.7517 5.25953 18.7517 8.99633C18.7518 15.5423 12.8243 20.714 12.0028 21.4145C11.1853 20.7175 5.24841 15.5448 5.24842 8.99633C5.24842 5.25953 8.26051 2.24744 11.9973 2.24744Z" fill="black"/>
<path d="M11.9973 0.74707C7.44985 0.74707 3.74805 4.44888 3.74805 8.99633C3.74804 16.9979 11.5322 23.081 11.5322 23.081C11.6651 23.187 11.8301 23.2447 12.0001 23.2447C12.1701 23.2447 12.335 23.187 12.4679 23.081C12.4679 23.081 20.2521 16.9979 20.2521 8.99633C20.2521 4.44888 16.5448 0.74707 11.9973 0.74707ZM11.9973 2.24744C15.7341 2.24744 18.7517 5.25953 18.7517 8.99633C18.7518 15.5423 12.8243 20.714 12.0028 21.4145C11.1853 20.7175 5.24841 15.5448 5.24842 8.99633C5.24842 5.25953 8.26051 2.24744 11.9973 2.24744Z" fill="url(#paint0_linear_948_335)"/>
<path d="M11.9973 0.74707C7.44985 0.74707 3.74805 4.44888 3.74805 8.99633C3.74804 16.9979 11.5322 23.081 11.5322 23.081C11.6651 23.187 11.8301 23.2447 12.0001 23.2447C12.1701 23.2447 12.335 23.187 12.4679 23.081C12.4679 23.081 20.2521 16.9979 20.2521 8.99633C20.2521 4.44888 16.5448 0.74707 11.9973 0.74707ZM11.9973 2.24744C15.7341 2.24744 18.7517 5.25953 18.7517 8.99633C18.7518 15.5423 12.8243 20.714 12.0028 21.4145C11.1853 20.7175 5.24841 15.5448 5.24842 8.99633C5.24842 5.25953 8.26051 2.24744 11.9973 2.24744Z" fill="url(#paint1_linear_948_335)"/>
<path d="M11.9972 5.24805C9.935 5.24805 8.24903 6.93403 8.24902 8.9962C8.24901 11.0584 9.93498 12.7499 11.9972 12.7499C14.0594 12.7499 15.7509 11.0584 15.7509 8.9962C15.7509 6.93403 14.0594 5.24805 11.9972 5.24805ZM11.9972 6.74842C13.2487 6.74842 14.2505 7.74468 14.2505 8.9962C14.2505 10.2477 13.2487 11.2495 11.9972 11.2495C10.7456 11.2495 9.74938 10.2477 9.74939 8.9962C9.7494 7.74468 10.7457 6.74842 11.9972 6.74842Z" fill="black"/>
<path d="M11.9972 5.24805C9.935 5.24805 8.24903 6.93403 8.24902 8.9962C8.24901 11.0584 9.93498 12.7499 11.9972 12.7499C14.0594 12.7499 15.7509 11.0584 15.7509 8.9962C15.7509 6.93403 14.0594 5.24805 11.9972 5.24805ZM11.9972 6.74842C13.2487 6.74842 14.2505 7.74468 14.2505 8.9962C14.2505 10.2477 13.2487 11.2495 11.9972 11.2495C10.7456 11.2495 9.74938 10.2477 9.74939 8.9962C9.7494 7.74468 10.7457 6.74842 11.9972 6.74842Z" fill="url(#paint2_linear_948_335)"/>
<path d="M11.9972 5.24805C9.935 5.24805 8.24903 6.93403 8.24902 8.9962C8.24901 11.0584 9.93498 12.7499 11.9972 12.7499C14.0594 12.7499 15.7509 11.0584 15.7509 8.9962C15.7509 6.93403 14.0594 5.24805 11.9972 5.24805ZM11.9972 6.74842C13.2487 6.74842 14.2505 7.74468 14.2505 8.9962C14.2505 10.2477 13.2487 11.2495 11.9972 11.2495C10.7456 11.2495 9.74938 10.2477 9.74939 8.9962C9.7494 7.74468 10.7457 6.74842 11.9972 6.74842Z" fill="url(#paint3_linear_948_335)"/>
<defs>
<linearGradient id="paint0_linear_948_335" x1="1.13705" y1="6.14035" x2="24.193" y2="7.80837" gradientUnits="userSpaceOnUse">
<stop stop-color="#00B4D8"/>
<stop offset="1" stop-color="#292ACF"/>
</linearGradient>
<linearGradient id="paint1_linear_948_335" x1="0.621301" y1="12.15" x2="23.6163" y2="14.6715" gradientUnits="userSpaceOnUse">
<stop stop-color="#62CFF4"/>
<stop offset="1" stop-color="#2C67F2"/>
</linearGradient>
<linearGradient id="paint2_linear_948_335" x1="7.06221" y1="7.04644" x2="17.4956" y2="8.07537" gradientUnits="userSpaceOnUse">
<stop stop-color="#00B4D8"/>
<stop offset="1" stop-color="#292ACF"/>
</linearGradient>
<linearGradient id="paint3_linear_948_335" x1="6.82778" y1="9.05035" x2="17.1745" y2="10.5969" gradientUnits="userSpaceOnUse">
<stop stop-color="#62CFF4"/>
<stop offset="1" stop-color="#2C67F2"/>
</linearGradient>
</defs>
</svg>
