<svg width="23" height="31" viewBox="0 0 23 31" fill="none" xmlns="http://www.w3.org/2000/svg">
    <path
        d="M9.84375 30.0469C6.79688 26.2383 0 17.1562 0 12C0 5.78906 4.98047 0.75 11.25 0.75C17.4609 0.75 22.5 5.78906 22.5 12C22.5 17.1562 15.6445 26.2383 12.5977 30.0469C11.8945 30.9258 10.5469 30.9258 9.84375 30.0469ZM11.25 15.75C13.3008 15.75 15 14.1094 15 12C15 9.94922 13.3008 8.25 11.25 8.25C9.14062 8.25 7.5 9.94922 7.5 12C7.5 14.1094 9.14062 15.75 11.25 15.75Z"
        fill="#FF3E54" />
    <path
        d="M9.84375 30.0469C6.79688 26.2383 0 17.1562 0 12C0 5.78906 4.98047 0.75 11.25 0.75C17.4609 0.75 22.5 5.78906 22.5 12C22.5 17.1562 15.6445 26.2383 12.5977 30.0469C11.8945 30.9258 10.5469 30.9258 9.84375 30.0469ZM11.25 15.75C13.3008 15.75 15 14.1094 15 12C15 9.94922 13.3008 8.25 11.25 8.25C9.14062 8.25 7.5 9.94922 7.5 12C7.5 14.1094 9.14062 15.75 11.25 15.75Z"
        fill="url(#paint0_linear_977_1094)" />
    <path
        d="M9.84375 30.0469C6.79688 26.2383 0 17.1562 0 12C0 5.78906 4.98047 0.75 11.25 0.75C17.4609 0.75 22.5 5.78906 22.5 12C22.5 17.1562 15.6445 26.2383 12.5977 30.0469C11.8945 30.9258 10.5469 30.9258 9.84375 30.0469ZM11.25 15.75C13.3008 15.75 15 14.1094 15 12C15 9.94922 13.3008 8.25 11.25 8.25C9.14062 8.25 7.5 9.94922 7.5 12C7.5 14.1094 9.14062 15.75 11.25 15.75Z"
        fill="url(#paint1_linear_977_1094)" />
    <defs>
        <linearGradient id="paint0_linear_977_1094" x1="-4.35742" y1="16.2055" x2="27.6532"
            y2="19.8738" gradientUnits="userSpaceOnUse">
            <stop stop-color="#62CFF4" />
            <stop offset="1" stop-color="#2C67F2" />
        </linearGradient>
        <linearGradient id="paint1_linear_977_1094" x1="-6.06593" y1="4.6" x2="39.1174" y2="11.0137"
            gradientUnits="userSpaceOnUse">
            <stop stop-color="#00B4D8" />
            <stop offset="1" stop-color="#292ACF" />
        </linearGradient>
    </defs>
</svg>
