<svg width="30" height="23" viewBox="0 0 30 23" fill="none" xmlns="http://www.w3.org/2000/svg">
<path d="M27.1875 0.5C28.7109 0.5 30 1.78906 30 3.3125C30 4.25 29.5312 5.07031 28.8281 5.59766L16.1133 15.1484C15.4102 15.6758 14.5312 15.6758 13.8281 15.1484L1.11328 5.59766C0.410156 5.07031 0 4.25 0 3.3125C0 1.78906 1.23047 0.5 2.8125 0.5H27.1875ZM12.7148 16.6719C14.0625 17.668 15.8789 17.668 17.2266 16.6719L30 7.0625V19.25C30 21.3594 28.3008 23 26.25 23H3.75C1.64062 23 0 21.3594 0 19.25V7.0625L12.7148 16.6719Z" fill="#FF3E54"/>
<path d="M27.1875 0.5C28.7109 0.5 30 1.78906 30 3.3125C30 4.25 29.5312 5.07031 28.8281 5.59766L16.1133 15.1484C15.4102 15.6758 14.5312 15.6758 13.8281 15.1484L1.11328 5.59766C0.410156 5.07031 0 4.25 0 3.3125C0 1.78906 1.23047 0.5 2.8125 0.5H27.1875ZM12.7148 16.6719C14.0625 17.668 15.8789 17.668 17.2266 16.6719L30 7.0625V19.25C30 21.3594 28.3008 23 26.25 23H3.75C1.64062 23 0 21.3594 0 19.25V7.0625L12.7148 16.6719Z" fill="url(#paint0_linear_977_1089)"/>
<path d="M27.1875 0.5C28.7109 0.5 30 1.78906 30 3.3125C30 4.25 29.5312 5.07031 28.8281 5.59766L16.1133 15.1484C15.4102 15.6758 14.5312 15.6758 13.8281 15.1484L1.11328 5.59766C0.410156 5.07031 0 4.25 0 3.3125C0 1.78906 1.23047 0.5 2.8125 0.5H27.1875ZM12.7148 16.6719C14.0625 17.668 15.8789 17.668 17.2266 16.6719L30 7.0625V19.25C30 21.3594 28.3008 23 26.25 23H3.75C1.64062 23 0 21.3594 0 19.25V7.0625L12.7148 16.6719Z" fill="url(#paint1_linear_977_1089)"/>
<defs>
<linearGradient id="paint0_linear_977_1089" x1="-5.68359" y1="12.2055" x2="35.6933" y2="18.3903" gradientUnits="userSpaceOnUse">
<stop stop-color="#62CFF4"/>
<stop offset="1" stop-color="#2C67F2"/>
</linearGradient>
<linearGradient id="paint1_linear_977_1089" x1="-7.91209" y1="0.6" x2="50.2175" y2="11.3627" gradientUnits="userSpaceOnUse">
<stop stop-color="#00B4D8"/>
<stop offset="1" stop-color="#292ACF"/>
</linearGradient>
</defs>
</svg>
