<svg width="43" height="42" viewBox="0 0 43 42" fill="none" xmlns="http://www.w3.org/2000/svg">
<path d="M5.7 15.22C4.51333 15.22 3.48 15.04 2.6 14.68C1.73333 14.32 0.94 13.7533 0.22 12.98L2.48 10.7C2.97333 11.22 3.5 11.62 4.06 11.9C4.62 12.1667 5.25333 12.3 5.96 12.3C6.56 12.3 7.02 12.2 7.34 12C7.67333 11.7867 7.84 11.5 7.84 11.14C7.84 10.8067 7.72 10.5333 7.48 10.32C7.24 10.0933 6.92 9.9 6.52 9.74C6.13333 9.56667 5.7 9.40667 5.22 9.26C4.75333 9.1 4.28 8.91333 3.8 8.7C3.33333 8.47333 2.9 8.2 2.5 7.88C2.11333 7.56 1.8 7.16 1.56 6.68C1.32 6.2 1.2 5.60667 1.2 4.9C1.2 3.99333 1.41333 3.22 1.84 2.58C2.28 1.94 2.88667 1.44667 3.66 1.1C4.43333 0.753333 5.33333 0.58 6.36 0.58C7.38667 0.58 8.33333 0.753333 9.2 1.1C10.0667 1.44667 10.78 1.92667 11.34 2.54L9.06 4.8C8.63333 4.37333 8.2 4.05333 7.76 3.84C7.32 3.62667 6.84 3.52 6.32 3.52C5.82667 3.52 5.44 3.60667 5.16 3.78C4.88 3.95333 4.74 4.2 4.74 4.52C4.74 4.84 4.86 5.1 5.1 5.3C5.34 5.5 5.65333 5.68 6.04 5.84C6.44 5.98667 6.87333 6.14 7.34 6.3C7.82 6.46 8.29333 6.64667 8.76 6.86C9.22667 7.07333 9.65333 7.34667 10.04 7.68C10.44 8.01333 10.76 8.43333 11 8.94C11.24 9.44667 11.36 10.06 11.36 10.78C11.36 12.1933 10.86 13.2867 9.86 14.06C8.87333 14.8333 7.48667 15.22 5.7 15.22ZM13.1741 15V0.819999H16.7541V15H13.1741ZM16.0141 15V11.98H23.6941V15H16.0141ZM16.0141 9.24V6.3H22.9741V9.24H16.0141ZM16.0141 3.84V0.819999H23.5741V3.84H16.0141ZM32.3788 15.26C31.2854 15.26 30.2788 15.0733 29.3587 14.7C28.4388 14.3267 27.6321 13.8067 26.9388 13.14C26.2588 12.4733 25.7254 11.6933 25.3388 10.8C24.9521 9.89333 24.7588 8.92 24.7588 7.88C24.7588 6.84 24.9454 5.88 25.3188 5C25.7054 4.10667 26.2388 3.32667 26.9188 2.66C27.5988 1.99333 28.3988 1.48 29.3188 1.12C30.2388 0.746666 31.2454 0.559999 32.3388 0.559999C33.4321 0.559999 34.4388 0.746666 35.3588 1.12C36.2788 1.48 37.0788 1.99333 37.7588 2.66C38.4388 3.32667 38.9654 4.10667 39.3388 5C39.7254 5.89333 39.9188 6.86 39.9188 7.9C39.9188 8.94 39.7254 9.90667 39.3388 10.8C38.9654 11.6933 38.4388 12.48 37.7588 13.16C37.0788 13.8267 36.2788 14.3467 35.3588 14.72C34.4521 15.08 33.4588 15.26 32.3788 15.26ZM32.3388 12.06C33.1388 12.06 33.8321 11.8867 34.4188 11.54C35.0054 11.1933 35.4588 10.7067 35.7788 10.08C36.0988 9.45333 36.2588 8.72 36.2588 7.88C36.2588 7.26667 36.1654 6.70667 35.9787 6.2C35.8054 5.69333 35.5454 5.26 35.1988 4.9C34.8521 4.52667 34.4388 4.24 33.9588 4.04C33.4788 3.84 32.9388 3.74 32.3388 3.74C31.5388 3.74 30.8454 3.91333 30.2588 4.26C29.6721 4.59333 29.2188 5.07333 28.8988 5.7C28.5788 6.32667 28.4188 7.05333 28.4188 7.88C28.4188 8.52 28.5054 9.1 28.6788 9.62C28.8654 10.1267 29.1321 10.5667 29.4788 10.94C29.8254 11.3 30.2388 11.58 30.7188 11.78C31.1988 11.9667 31.7388 12.06 32.3388 12.06ZM0.22 41L5.72 26.82H9.18L14.62 41H10.88L6.78 29.08H8.08L3.88 41H0.22ZM3.56 38.52V35.68H11.38V38.52H3.56ZM20.1531 41.22C18.9665 41.22 17.9331 41.04 17.0531 40.68C16.1865 40.32 15.3931 39.7533 14.6731 38.98L16.9331 36.7C17.4265 37.22 17.9531 37.62 18.5131 37.9C19.0731 38.1667 19.7065 38.3 20.4131 38.3C21.0131 38.3 21.4731 38.2 21.7931 38C22.1265 37.7867 22.2931 37.5 22.2931 37.14C22.2931 36.8067 22.1731 36.5333 21.9331 36.32C21.6931 36.0933 21.3731 35.9 20.9731 35.74C20.5865 35.5667 20.1531 35.4067 19.6731 35.26C19.2065 35.1 18.7331 34.9133 18.2531 34.7C17.7865 34.4733 17.3531 34.2 16.9531 33.88C16.5665 33.56 16.2531 33.16 16.0131 32.68C15.7731 32.2 15.6531 31.6067 15.6531 30.9C15.6531 29.9933 15.8665 29.22 16.2931 28.58C16.7331 27.94 17.3398 27.4467 18.1131 27.1C18.8865 26.7533 19.7865 26.58 20.8131 26.58C21.8398 26.58 22.7865 26.7533 23.6531 27.1C24.5198 27.4467 25.2331 27.9267 25.7931 28.54L23.5131 30.8C23.0865 30.3733 22.6531 30.0533 22.2131 29.84C21.7731 29.6267 21.2931 29.52 20.7731 29.52C20.2798 29.52 19.8931 29.6067 19.6131 29.78C19.3331 29.9533 19.1931 30.2 19.1931 30.52C19.1931 30.84 19.3131 31.1 19.5531 31.3C19.7931 31.5 20.1065 31.68 20.4931 31.84C20.8931 31.9867 21.3265 32.14 21.7931 32.3C22.2731 32.46 22.7465 32.6467 23.2131 32.86C23.6798 33.0733 24.1065 33.3467 24.4931 33.68C24.8931 34.0133 25.2131 34.4333 25.4531 34.94C25.6931 35.4467 25.8131 36.06 25.8131 36.78C25.8131 38.1933 25.3131 39.2867 24.3131 40.06C23.3265 40.8333 21.9398 41.22 20.1531 41.22ZM34.6444 41.26C33.551 41.26 32.5444 41.0733 31.6244 40.7C30.7044 40.3267 29.8977 39.8067 29.2044 39.14C28.5244 38.4733 27.991 37.6933 27.6044 36.8C27.2177 35.8933 27.0244 34.92 27.0244 33.88C27.0244 32.84 27.211 31.88 27.5844 31C27.971 30.1067 28.5044 29.3267 29.1844 28.66C29.8644 27.9933 30.6644 27.48 31.5844 27.12C32.5044 26.7467 33.511 26.56 34.6044 26.56C35.6977 26.56 36.7044 26.7467 37.6244 27.12C38.5444 27.48 39.3444 27.9933 40.0244 28.66C40.7044 29.3267 41.231 30.1067 41.6044 31C41.991 31.8933 42.1844 32.86 42.1844 33.9C42.1844 34.94 41.991 35.9067 41.6044 36.8C41.231 37.6933 40.7044 38.48 40.0244 39.16C39.3444 39.8267 38.5444 40.3467 37.6244 40.72C36.7177 41.08 35.7244 41.26 34.6444 41.26ZM34.6044 38.06C35.4044 38.06 36.0977 37.8867 36.6844 37.54C37.271 37.1933 37.7244 36.7067 38.0444 36.08C38.3644 35.4533 38.5244 34.72 38.5244 33.88C38.5244 33.2667 38.431 32.7067 38.2444 32.2C38.071 31.6933 37.811 31.26 37.4644 30.9C37.1177 30.5267 36.7044 30.24 36.2244 30.04C35.7444 29.84 35.2044 29.74 34.6044 29.74C33.8044 29.74 33.111 29.9133 32.5244 30.26C31.9377 30.5933 31.4844 31.0733 31.1644 31.7C30.8444 32.3267 30.6844 33.0533 30.6844 33.88C30.6844 34.52 30.771 35.1 30.9444 35.62C31.131 36.1267 31.3977 36.5667 31.7444 36.94C32.091 37.3 32.5044 37.58 32.9844 37.78C33.4644 37.9667 34.0044 38.06 34.6044 38.06Z" fill="white"/>
</svg>
