<svg width="50" height="50" viewBox="0 0 50 50" fill="none" xmlns="http://www.w3.org/2000/svg">
<path d="M7.23578 0.104756C6.57242 0.298663 5.93967 0.829354 5.61309 1.4621L5.30692 2.07444L5.2763 4.40132L5.23548 6.7282H3.73525C1.56146 6.7282 0.877683 7.02416 0.285757 8.23863L0 8.82035V26.1189V43.4174L0.234729 43.897C0.367402 44.1522 0.67357 44.5502 0.918505 44.7849C1.73495 45.5401 1.32673 45.5095 11.3997 45.5095H20.3602V47.5507C20.3602 49.4591 20.3704 49.602 20.5643 49.7959C20.7684 50 20.9011 50 27.3 50C33.6989 50 33.8316 50 34.0357 49.7959C34.2296 49.602 34.2398 49.4591 34.2398 47.5507V45.5095H37.8934C42.0879 45.5095 42.3125 45.4789 43.0881 44.7645C43.9045 44.0195 43.976 43.7644 44.0168 41.1007L44.0576 38.7942L45.7109 38.7534C47.1703 38.7228 47.4051 38.6922 47.7725 38.4983C48.344 38.1921 48.8237 37.7022 49.0788 37.1409L49.2931 36.6817V19.373V2.07444L48.9869 1.4621C48.6502 0.808943 48.0174 0.288457 47.3234 0.0945502C46.8438 -0.0381227 7.69503 -0.0279171 7.23578 0.104756ZM47.0989 1.57436C47.252 1.65601 47.4867 1.84992 47.599 1.99279C47.8031 2.25814 47.8133 2.38061 47.8133 5.36065V8.46315H35.2706H22.7279L21.1154 6.83026C19.9112 5.60558 19.4111 5.16674 19.1457 5.0953C18.6559 4.96263 12.4611 4.96263 11.9712 5.0953C11.7671 5.15653 11.4813 5.34024 11.3384 5.51373C11.0833 5.80969 11.0731 5.88113 11.0731 7.14663V8.46315H8.86868H6.67447L6.70509 5.42188C6.7357 2.05403 6.74591 2.04382 7.42969 1.62539C7.74606 1.42128 8.10326 1.42128 27.2796 1.42128C44.3128 1.42128 46.8438 1.44169 47.0989 1.57436ZM20.2275 8.01411C21.0542 8.89179 21.8604 9.66742 22.0135 9.74906C22.2482 9.87153 24.2996 9.89194 35.0563 9.89194H47.8133V23.2001V36.498L47.599 36.7735C47.1295 37.3655 47.3745 37.345 40.2918 37.3348H33.7806L34.3215 37.0899C34.7807 36.8756 34.893 36.7735 35.0767 36.3551C35.2502 35.9673 35.2706 35.804 35.189 35.508C35.1379 35.3039 33.5152 32.3035 31.5864 28.8336C28.3002 22.9143 28.0654 22.5163 27.7184 22.3734C27.4021 22.2407 27.3 22.2305 26.9428 22.353C26.5448 22.4959 26.4938 22.5673 24.769 25.6596C19.6764 34.7834 19.3907 35.3243 19.4009 35.8142C19.4111 36.4265 19.6764 36.8143 20.3092 37.1001L20.8195 37.3348H14.2879C7.991 37.345 7.74606 37.3348 7.42969 37.1409C7.24599 37.0389 7.02146 36.8246 6.91941 36.6613C6.74591 36.3959 6.7357 35.7121 6.70509 23.1388L6.68468 9.89194H9.17485H11.665L11.9814 9.62659C12.3896 9.28981 12.5019 8.84076 12.5019 7.51403V6.42203H15.6044H18.7069L20.2275 8.01411ZM5.2763 22.4244L5.30692 36.6919L5.61309 37.3042C5.94987 37.9574 6.58262 38.4779 7.2766 38.6718C7.52154 38.733 10.3179 38.7738 15.0227 38.7738C22.3911 38.7738 22.3911 38.7738 22.5034 38.9881C22.5748 39.1004 22.6463 39.4474 22.6769 39.7536L22.7381 40.3047H22.238C21.5236 40.3047 21.0542 40.468 20.7072 40.8252C20.4112 41.1313 20.4112 41.1313 20.3806 42.6111L20.35 44.0807H11.4711C1.83701 44.0807 2.15338 44.1012 1.70434 43.5194L1.47981 43.2337V26.1495C1.47981 10.2491 1.49002 9.03467 1.65331 8.75912C1.94927 8.25904 2.29626 8.15698 3.84752 8.15698H5.25589L5.2763 22.4244ZM26.5856 27.017V28.5172L26.208 28.7213C25.4732 29.1193 25.014 30.2317 25.2487 31.089C25.5344 32.1504 26.2897 32.6811 27.4123 32.63C27.9532 32.5994 28.1777 32.5382 28.4941 32.3137C29.729 31.4564 29.6983 29.548 28.4328 28.7723L28.0246 28.5172L28.0144 26.9965C28.0144 26.1597 28.0348 25.4963 28.0552 25.5167C28.1165 25.578 33.7296 35.7121 33.7296 35.753C33.7296 35.7836 33.5561 35.855 33.3519 35.9265C31.8415 36.4163 30.5964 38.0186 30.4842 39.6005L30.4331 40.3047H27.3H24.1669L24.1159 39.5903C24.0036 38.1207 22.9626 36.6715 21.5338 35.9979L20.8603 35.6917L21.0542 35.3652C21.1562 35.1917 22.4319 32.9056 23.8811 30.2725C25.3303 27.6497 26.5346 25.5065 26.555 25.5065C26.5754 25.5065 26.5856 26.1801 26.5856 27.017ZM27.8001 30.1603C27.9226 30.3134 28.0144 30.4869 28.0144 30.5583C28.0144 30.8237 27.596 31.2217 27.3102 31.2217C26.7081 31.2217 26.4223 30.64 26.7897 30.1705C27.0857 29.8031 27.5143 29.8031 27.8001 30.1603ZM42.588 40.9578C42.537 44.2542 42.8125 44.0807 37.8424 44.0807H34.25L34.2194 42.6111C34.1888 41.2028 34.1786 41.1211 33.9337 40.8558C33.5765 40.4782 33.1172 40.3047 32.4436 40.3047H31.8619L31.9232 39.7536C32.0354 38.6718 31.4639 38.7738 37.4138 38.7738H42.6288L42.588 40.9578ZM32.811 45.1523V48.5712H27.3H21.789V45.1523V41.7335H27.3H32.811V45.1523Z" fill="white"/>
<path d="M34.5971 3.21754C33.8317 3.61555 33.4847 4.2483 33.5459 5.11578C33.6174 6.14655 34.3828 6.83032 35.4442 6.83032C36.4035 6.83032 37.0465 6.34045 37.3016 5.42195C37.5159 4.58509 37.0975 3.62576 36.3525 3.26856C35.8218 3.01342 35.036 2.99301 34.5971 3.21754ZM35.832 4.73817C36.1076 5.1566 35.434 5.63627 35.0768 5.27907C34.9033 5.10557 34.9237 4.83002 35.1176 4.63612C35.3319 4.4218 35.6585 4.47283 35.832 4.73817Z" fill="white"/>
<path d="M38.924 3.33992C37.7096 4.11555 37.781 5.98317 39.0363 6.62613C39.4751 6.85065 40.2814 6.89147 40.7406 6.71798C41.6898 6.36078 42.149 5.10549 41.7 4.11555C41.3938 3.45218 40.8733 3.1154 40.0671 3.07457C39.4649 3.04396 39.3425 3.07457 38.924 3.33992ZM40.3018 4.64624C40.6386 4.97282 40.4345 5.40145 39.9344 5.40145C39.5466 5.40145 39.3731 5.06467 39.5976 4.72788C39.7813 4.44213 40.0671 4.41151 40.3018 4.64624Z" fill="white"/>
<path d="M43.68 3.19712C43.0166 3.49309 42.6084 4.15645 42.6084 4.94228C42.6084 5.50359 42.7513 5.8812 43.0983 6.2486C43.5065 6.68744 43.8637 6.83032 44.5066 6.83032C45.6395 6.83032 46.3845 6.08531 46.3845 4.95249C46.3845 4.63612 46.3232 4.2483 46.2416 4.09522C46.0477 3.72782 45.5782 3.29918 45.2312 3.16651C44.8332 3.01342 44.0474 3.03383 43.68 3.19712ZM44.8332 4.6055C44.9047 4.67694 44.9557 4.81982 44.9557 4.94228C44.9557 5.06475 44.9047 5.20763 44.8332 5.27907C44.7618 5.35051 44.6189 5.40154 44.4964 5.40154C44.374 5.40154 44.2311 5.35051 44.1597 5.27907C44.0882 5.20763 44.0372 5.06475 44.0372 4.94228C44.0372 4.81982 44.0882 4.67694 44.1597 4.6055C44.2311 4.53406 44.374 4.48303 44.4964 4.48303C44.6189 4.48303 44.7618 4.53406 44.8332 4.6055Z" fill="white"/>
<path d="M25.0748 14.8926C24.6462 15.158 24.442 15.6376 24.442 16.4235V17.0358H19.8495H15.2672L15.1345 16.5969C14.9508 15.9846 14.1242 15.1784 13.4914 15.0049C11.93 14.566 10.3991 15.3825 10.0521 16.8419C9.55205 18.934 11.3789 20.6588 13.4608 20.0567C14.114 19.8627 14.7365 19.3627 14.9916 18.8218L15.1651 18.4646H18.1962H21.2171L20.4619 18.9238C17.7268 20.618 15.5836 23.3531 14.6855 26.2923L14.4303 27.1393H13.8078C12.9607 27.1393 12.5219 27.3639 12.277 27.9252C12.1035 28.3232 12.083 28.5681 12.1137 30.15C12.1443 31.7523 12.1647 31.9462 12.3586 32.2115C12.777 32.7728 13.0934 32.8545 15.0019 32.8545C17.737 32.8545 17.8084 32.7728 17.8084 29.9459C17.8084 28.2824 17.788 28.0783 17.6043 27.7721C17.3696 27.3843 16.8695 27.1393 16.3286 27.1393C15.9816 27.1393 15.9714 27.1291 16.0326 26.8536C16.2469 25.9861 17.094 24.2716 17.7982 23.3224C18.8188 21.9243 20.2271 20.6894 21.7171 19.8934C22.4724 19.4851 24.0134 18.8728 24.2788 18.8728C24.3604 18.8728 24.4625 19.0667 24.5339 19.3218C24.6053 19.6076 24.7584 19.8627 24.9625 20.0362L25.2789 20.3016H27.269C28.9631 20.3016 29.2999 20.271 29.5551 20.1281C29.8816 19.9342 30.1572 19.4341 30.1572 19.0463V18.7912L30.6981 18.9442C31.5145 19.1688 33.5965 20.2301 34.3415 20.8017C36.1275 22.1488 37.5971 24.1185 38.3727 26.18C38.6993 27.0577 38.6993 27.1393 38.3217 27.1393C37.8318 27.1393 37.3215 27.4047 37.097 27.7721C36.9133 28.0783 36.8929 28.2824 36.8929 29.9969C36.8929 32.8035 36.9439 32.8545 39.7199 32.8545C41.6079 32.8545 41.9345 32.7728 42.3427 32.2115C42.5366 31.9564 42.557 31.7523 42.5876 30.2623C42.6285 28.3844 42.5468 27.9252 42.0978 27.4965C41.812 27.221 41.6997 27.1904 40.9956 27.1598L40.2097 27.1189L39.924 26.2413C38.9442 23.1694 36.7806 20.4547 34.0557 18.8626L33.372 18.4646H36.4541C39.4953 18.4646 39.5361 18.4646 39.5974 18.6789C39.7096 19.0157 40.3628 19.679 40.8016 19.9138C41.6997 20.3628 42.9856 20.2199 43.7715 19.577C44.8635 18.6687 44.9553 16.7296 43.9552 15.6784C43.251 14.9334 41.8834 14.6681 40.8935 15.0967C40.2505 15.3723 39.6382 16.0356 39.4545 16.6174L39.332 17.0358H34.7497H30.1572V16.4235C30.1572 15.6376 29.9531 15.158 29.5244 14.8926C29.2183 14.7089 29.0142 14.6885 27.2996 14.6885C25.5851 14.6885 25.381 14.7089 25.0748 14.8926ZM28.7284 17.5461V18.9749H27.2996H25.8708V17.5461V16.1173H27.2996H28.7284V17.5461ZM13.4302 16.6072C13.8282 16.9644 13.9405 17.6481 13.6751 18.1482C13.5016 18.4952 13.0118 18.7707 12.5831 18.7707C12.0422 18.7707 11.3789 18.0972 11.3789 17.5461C11.3789 17.4236 11.4503 17.1787 11.5319 16.995C11.8687 16.2908 12.8485 16.0867 13.4302 16.6072ZM42.5978 16.4745C42.7611 16.5561 42.9652 16.7909 43.0673 16.995C43.6796 18.2911 42.0263 19.3831 41.0874 18.3013C40.8323 18.0155 40.771 17.8522 40.771 17.4848C40.771 17.0868 40.8221 16.9644 41.118 16.6684C41.4038 16.3826 41.5467 16.3214 41.8834 16.3214C42.1182 16.3214 42.4447 16.3928 42.5978 16.4745ZM16.3796 29.9969V31.4257H14.9508H13.522V29.9969V28.5681H14.9508H16.3796V29.9969ZM41.1078 29.5581C41.1486 30.1092 41.1793 30.7521 41.1793 30.9869V31.4257H39.7505H38.3217V31.0889C38.3217 30.895 38.2911 30.2521 38.2502 29.6601L38.189 28.5681H39.6178H41.0466L41.1078 29.5581Z" fill="white"/>
</svg>
