<svg width="40" height="35" viewBox="0 0 40 35" fill="none" xmlns="http://www.w3.org/2000/svg">
<path d="M37.76 1.415C37.0378 0.763395 36.1448 0.331218 35.1857 0.169154C34.2266 0.0070905 33.2412 0.121859 32.345 0.5C31.4299 0.933737 30.6677 1.63463 30.1589 2.51026C29.6501 3.3859 29.4186 4.39517 29.495 5.405C29.6829 6.86489 30.1955 8.26415 30.995 9.5C32.075 11.69 33.305 14.165 32.9 16.85L28.475 29L20.66 6.89H22.445L26.675 18.89C26.7798 19.1799 26.9714 19.4305 27.2237 19.6076C27.476 19.7848 27.7767 19.8799 28.085 19.88C28.3253 19.8814 28.5624 19.8251 28.7764 19.7158C28.9904 19.6065 29.175 19.4474 29.3146 19.2519C29.4543 19.0564 29.545 18.8301 29.5789 18.5923C29.6129 18.3544 29.5893 18.1118 29.51 17.885L25.625 6.89H26.81C27.2078 6.89 27.5894 6.73196 27.8707 6.45066C28.152 6.16936 28.31 5.78782 28.31 5.39C28.31 4.99218 28.152 4.61064 27.8707 4.32934C27.5894 4.04803 27.2078 3.89 26.81 3.89H16.88C16.4822 3.89 16.1006 4.04803 15.8193 4.32934C15.538 4.61064 15.38 4.99218 15.38 5.39C15.38 5.78782 15.538 6.16936 15.8193 6.45066C16.1006 6.73196 16.4822 6.89 16.88 6.89H17.48L19.475 12.5L13.58 29L5.78 6.89H7.55L11.795 18.89C11.8998 19.1799 12.0914 19.4305 12.3437 19.6076C12.596 19.7848 12.8967 19.8799 13.205 19.88C13.373 19.8829 13.5404 19.8576 13.7 19.805C13.8865 19.7395 14.0581 19.6377 14.2051 19.5056C14.3521 19.3735 14.4716 19.2136 14.5566 19.0352C14.6417 18.8568 14.6906 18.6633 14.7006 18.4659C14.7106 18.2685 14.6815 18.0711 14.615 17.885L10.73 6.89H11.93C12.3278 6.89 12.7094 6.73196 12.9907 6.45066C13.272 6.16936 13.43 5.78782 13.43 5.39C13.43 4.99218 13.272 4.61064 12.9907 4.32934C12.7094 4.04803 12.3278 3.89 11.93 3.89H2C1.60218 3.89 1.22064 4.04803 0.93934 4.32934C0.658035 4.61064 0.5 4.99218 0.5 5.39C0.5 5.78782 0.658035 6.16936 0.93934 6.45066C1.22064 6.73196 1.60218 6.89 2 6.89H2.6L12.17 33.995C12.2723 34.2877 12.4628 34.5415 12.7153 34.7215C12.9679 34.9015 13.2699 34.9988 13.58 35C13.8883 34.9999 14.189 34.9048 14.4413 34.7276C14.6936 34.5505 14.8852 34.2999 14.99 34.01L21.05 17L27.05 33.98C27.1523 34.2727 27.3428 34.5265 27.5953 34.7065C27.8479 34.8865 28.1499 34.9838 28.46 34.985C28.7683 34.9849 29.069 34.8898 29.3213 34.7126C29.5736 34.5355 29.7652 34.2849 29.87 33.995L35.675 17.75C35.675 17.75 35.675 17.75 35.675 17.675L38.12 10.82L39.035 8.075C39.5189 6.9658 39.6561 5.73619 39.4286 4.54761C39.201 3.35903 38.6194 2.26704 37.76 1.415ZM36.26 7.13L34.91 11C34.49 9.95 34.025 9.005 33.605 8.15C33.0914 7.29449 32.7167 6.36291 32.495 5.39C32.4381 4.97152 32.5025 4.5455 32.6807 4.16259C32.8588 3.77968 33.1432 3.45598 33.5 3.23C33.7312 3.12715 33.982 3.07596 34.235 3.08C34.7863 3.07364 35.3206 3.27131 35.735 3.635C36.1493 4.10609 36.4157 4.68873 36.5011 5.31024C36.5865 5.93176 36.487 6.56466 36.215 7.13H36.26Z" fill="white"/>
</svg>
